ISO-10303-21;
HEADER;
FILE_DESCRIPTION (( 'STEP AP203' ),
    '1' );
FILE_NAME ('Numpad.STEP',
    '2026-02-17T16:07:43',
    ( '' ),
    ( '' ),
    'SwSTEP 2.0',
    'SolidWorks 2025',
    '' );
FILE_SCHEMA (( 'CONFIG_CONTROL_DESIGN' ));
ENDSEC;

DATA;
#1 = EDGE_LOOP ( 'NONE', ( #378, #833, #264, #827, #944, #73 ) ) ;
#2 = APPROVAL_ROLE ( '' ) ;
#3 = DIRECTION ( 'NONE',  ( 1.000000000000000000, 0.000000000000000000, 0.000000000000000000 ) ) ;
#4 = EDGE_CURVE ( 'NONE', #330, #1024, #292, .T. ) ;
#5 = VERTEX_POINT ( 'NONE', #773 ) ;
#6 = CARTESIAN_POINT ( 'NONE',  ( -3.000000000000000000, 14.00000000000000000, -94.23999999999998067 ) ) ;
#7 = VECTOR ( 'NONE', #240, 1000.000000000000000 ) ;
#8 = ORIENTED_EDGE ( 'NONE', *, *, #215, .F. ) ;
#9 = LINE ( 'NONE', #324, #805 ) ;
#10 = CARTESIAN_POINT ( 'NONE',  ( -3.000000000000000000, 8.500000000000000000, -78.23999999999998067 ) ) ;
#11 = ORIENTED_EDGE ( 'NONE', *, *, #642, .T. ) ;
#12 = EDGE_CURVE ( 'NONE', #352, #815, #19, .T. ) ;
#13 = FACE_OUTER_BOUND ( 'NONE', #779, .T. ) ;
#14 = LINE ( 'NONE', #976, #207 ) ;
#15 = ORIENTED_EDGE ( 'NONE', *, *, #866, .F. ) ;
#16 = ADVANCED_FACE ( 'NONE', ( #940 ), #284, .F. ) ;
#17 = ORIENTED_EDGE ( 'NONE', *, *, #398, .T. ) ;
#18 = CYLINDRICAL_SURFACE ( 'NONE', #414, 3.000000000000000000 ) ;
#19 = CIRCLE ( 'NONE', #451, 3.000000000000000000 ) ;
#20 = CARTESIAN_POINT ( 'NONE',  ( 0.000000000000000000, 14.00000000000000000, -114.2399999999999949 ) ) ;
#21 = VECTOR ( 'NONE', #54, 1000.000000000000000 ) ;
#22 = VECTOR ( 'NONE', #689, 1000.000000000000000 ) ;
#23 = ORIENTED_EDGE ( 'NONE', *, *, #847, .F. ) ;
#24 = ORIENTED_EDGE ( 'NONE', *, *, #902, .F. ) ;
#25 = DIRECTION ( 'NONE',  ( -0.000000000000000000, -1.000000000000000000, -0.000000000000000000 ) ) ;
#26 = EDGE_CURVE ( 'NONE', #898, #316, #60, .T. ) ;
#27 = DIRECTION ( 'NONE',  ( -9.637352644315594010E-17, -0.000000000000000000, -1.000000000000000000 ) ) ;
#28 = ORIENTED_EDGE ( 'NONE', *, *, #1010, .T. ) ;
#29 = ORIENTED_EDGE ( 'NONE', *, *, #12, .T. ) ;
#30 = CARTESIAN_POINT ( 'NONE',  ( -3.000000000000000000, 14.00000000000000000, 0.000000000000000000 ) ) ;
#31 = CARTESIAN_POINT ( 'NONE',  ( 81.70000000000000284, 7.000000000000000000, -114.2399999999999949 ) ) ;
#32 = VERTEX_POINT ( 'NONE', #760 ) ;
#33 = ORIENTED_EDGE ( 'NONE', *, *, #215, .T. ) ;
#34 = LINE ( 'NONE', #667, #89 ) ;
#35 = CARTESIAN_POINT ( 'NONE',  ( 0.000000000000000000, 14.00000000000000000, -94.23999999999998067 ) ) ;
#36 = DIRECTION ( 'NONE',  ( -1.000000000000000000, 0.000000000000000000, -0.000000000000000000 ) ) ;
#37 = VECTOR ( 'NONE', #339, 1000.000000000000000 ) ;
#38 = ADVANCED_FACE ( 'NONE', ( #301 ), #455, .F. ) ;
#39 = EDGE_CURVE ( 'NONE', #517, #685, #791, .T. ) ;
#40 = ORIENTED_EDGE ( 'NONE', *, *, #828, .T. ) ;
#41 = LINE ( 'NONE', #761, #318 ) ;
#42 = CARTESIAN_POINT ( 'NONE',  ( 81.70000000000000284, 14.00000000000000000, 0.000000000000000000 ) ) ;
#43 = LINE ( 'NONE', #530, #552 ) ;
#44 = VERTEX_POINT ( 'NONE', #785 ) ;
#45 = EDGE_CURVE ( 'NONE', #386, #753, #360, .T. ) ;
#46 = CARTESIAN_POINT ( 'NONE',  ( -3.000000000000000000, 8.500000000000000000, -94.23999999999998067 ) ) ;
#47 = CARTESIAN_POINT ( 'NONE',  ( -3.000000000000000000, 14.00000000000000000, -36.00000000000000711 ) ) ;
#48 = CARTESIAN_POINT ( 'NONE',  ( 2.000000000000000000, 0.000000000000000000, -78.23999999999998067 ) ) ;
#49 = CARTESIAN_POINT ( 'NONE',  ( 2.000000000000000000, 7.000000000000000000, -112.2399999999999807 ) ) ;
#50 = FACE_OUTER_BOUND ( 'NONE', #476, .T. ) ;
#51 = EDGE_LOOP ( 'NONE', ( #151, #29, #119, #238, #263, #957, #910, #87 ) ) ;
#52 = CARTESIAN_POINT ( 'NONE',  ( 79.70000000000000284, 0.000000000000000000, -112.2399999999999949 ) ) ;
#53 = EDGE_CURVE ( 'NONE', #710, #5, #365, .T. ) ;
#54 = DIRECTION ( 'NONE',  ( -0.000000000000000000, -1.000000000000000000, -0.000000000000000000 ) ) ;
#55 = CARTESIAN_POINT ( 'NONE',  ( 0.000000000000000000, 8.500000000000000000, -20.00000000000000000 ) ) ;
#56 = CARTESIAN_POINT ( 'NONE',  ( 84.70000000000001705, -7.301511380992067757, -117.2399999999999949 ) ) ;
#57 = ORIENTED_EDGE ( 'NONE', *, *, #800, .F. ) ;
#58 = VECTOR ( 'NONE', #163, 1000.000000000000000 ) ;
#59 = VECTOR ( 'NONE', #25, 1000.000000000000000 ) ;
#60 = LINE ( 'NONE', #693, #774 ) ;
#61 = SECURITY_CLASSIFICATION ( '', '', #456 ) ;
#62 = CARTESIAN_POINT ( 'NONE',  ( 16.91892431568863486, 8.500000000000000000, -36.00000000000000711 ) ) ;
#63 = CC_DESIGN_PERSON_AND_ORGANIZATION_ASSIGNMENT ( #871, #962, ( #256 ) ) ;
#64 = DIRECTION ( 'NONE',  ( 0.000000000000000000, 0.000000000000000000, -1.000000000000000000 ) ) ;
#65 = VERTEX_POINT ( 'NONE', #947 ) ;
#66 = DIRECTION ( 'NONE',  ( -1.000000000000000000, 0.000000000000000000, 0.000000000000000000 ) ) ;
#67 = PERSON_AND_ORGANIZATION_ROLE ( 'design_supplier' ) ;
#68 = CARTESIAN_POINT ( 'NONE',  ( 0.000000000000000000, 14.00000000000000000, -114.2399999999999949 ) ) ;
#69 = CARTESIAN_POINT ( 'NONE',  ( 84.70000000000001705, -7.144288043142964284, -114.2399999999999949 ) ) ;
#70 = EDGE_CURVE ( 'NONE', #984, #101, #623, .T. ) ;
#71 = LINE ( 'NONE', #1007, #618 ) ;
#72 = CARTESIAN_POINT ( 'NONE',  ( 2.000000000000000000, 0.000000000000000000, -112.2399999999999807 ) ) ;
#73 = ORIENTED_EDGE ( 'NONE', *, *, #543, .F. ) ;
#74 = EDGE_CURVE ( 'NONE', #499, #295, #927, .T. ) ;
#75 = AXIS2_PLACEMENT_3D ( 'NONE', #140, #66, #1030 ) ;
#76 = ADVANCED_FACE ( 'NONE', ( #228 ), #541, .T. ) ;
#77 = VECTOR ( 'NONE', #112, 1000.000000000000000 ) ;
#78 = DATE_AND_TIME ( #629, #893 ) ;
#79 = DIRECTION ( 'NONE',  ( 0.000000000000000000, -1.000000000000000000, 0.000000000000000000 ) ) ;
#80 = ORIENTED_EDGE ( 'NONE', *, *, #723, .F. ) ;
#81 = PERSON_AND_ORGANIZATION ( #399, #806 ) ;
#82 = CARTESIAN_POINT ( 'NONE',  ( 0.000000000000000000, 8.500000000000000000, -36.00000000000000711 ) ) ;
#83 = VERTEX_POINT ( 'NONE', #460 ) ;
#84 = APPROVAL_ROLE ( '' ) ;
#85 = EDGE_CURVE ( 'NONE', #326, #795, #71, .T. ) ;
#86 = DIRECTION ( 'NONE',  ( 0.000000000000000000, 0.000000000000000000, 1.000000000000000000 ) ) ;
#87 = ORIENTED_EDGE ( 'NONE', *, *, #387, .T. ) ;
#88 = AXIS2_PLACEMENT_3D ( 'NONE', #701, #307, #222 ) ;
#89 = VECTOR ( 'NONE', #197, 1000.000000000000000 ) ;
#90 = DIRECTION ( 'NONE',  ( -1.000000000000000000, 0.000000000000000000, 0.000000000000000000 ) ) ;
#91 = CIRCLE ( 'NONE', #839, 3.000000000000002665 ) ;
#92 = EDGE_CURVE ( 'NONE', #780, #421, #546, .T. ) ;
#93 = FACE_OUTER_BOUND ( 'NONE', #390, .T. ) ;
#94 = ADVANCED_FACE ( 'NONE', ( #209 ), #520, .T. ) ;
#95 = PLANE ( 'NONE',  #926 ) ;
#96 = DIRECTION ( 'NONE',  ( 0.000000000000000000, 0.000000000000000000, 1.000000000000000000 ) ) ;
#97 = ORIENTED_EDGE ( 'NONE', *, *, #26, .T. ) ;
#98 = ADVANCED_FACE ( 'NONE', ( #527 ), #446, .F. ) ;
#99 = LINE ( 'NONE', #477, #402 ) ;
#100 = DIRECTION ( 'NONE',  ( -1.000000000000000000, 0.000000000000000000, 0.000000000000000000 ) ) ;
#101 = VERTEX_POINT ( 'NONE', #763 ) ;
#102 = EDGE_CURVE ( 'NONE', #180, #898, #287, .T. ) ;
#103 = VERTEX_POINT ( 'NONE', #614 ) ;
#104 = CARTESIAN_POINT ( 'NONE',  ( 81.70000000000000284, 14.00000000000000000, 0.000000000000000000 ) ) ;
#105 = VECTOR ( 'NONE', #713, 1000.000000000000000 ) ;
#106 = FACE_BOUND ( 'NONE', #267, .T. ) ;
#107 = VECTOR ( 'NONE', #448, 1000.000000000000000 ) ;
#108 = ORIENTED_EDGE ( 'NONE', *, *, #939, .F. ) ;
#109 = ORIENTED_EDGE ( 'NONE', *, *, #847, .T. ) ;
#110 = ADVANCED_FACE ( 'NONE', ( #50 ), #999, .F. ) ;
#111 = FACE_BOUND ( 'NONE', #358, .T. ) ;
#112 = DIRECTION ( 'NONE',  ( 1.000000000000000000, -0.000000000000000000, 0.000000000000000000 ) ) ;
#113 = ORIENTED_EDGE ( 'NONE', *, *, #45, .T. ) ;
#114 = ORIENTED_EDGE ( 'NONE', *, *, #656, .F. ) ;
#115 = DIRECTION ( 'NONE',  ( 0.000000000000000000, 0.000000000000000000, -1.000000000000000000 ) ) ;
#116 = ADVANCED_FACE ( 'NONE', ( #357 ), #596, .T. ) ;
#117 = DIRECTION ( 'NONE',  ( -0.000000000000000000, -1.000000000000000000, -0.000000000000000000 ) ) ;
#118 = PLANE ( 'NONE',  #963 ) ;
#119 = ORIENTED_EDGE ( 'NONE', *, *, #626, .T. ) ;
#120 = ORIENTED_EDGE ( 'NONE', *, *, #509, .T. ) ;
#121 = ORIENTED_EDGE ( 'NONE', *, *, #868, .F. ) ;
#122 = DIRECTION ( 'NONE',  ( -0.000000000000000000, -1.000000000000000000, -0.000000000000000000 ) ) ;
#123 = CARTESIAN_POINT ( 'NONE',  ( 2.000000000000005329, 7.000000000000000000, -36.00000000000000711 ) ) ;
#124 = DIRECTION ( 'NONE',  ( 0.000000000000000000, -0.9986295347545742773, 0.05233595624293716636 ) ) ;
#125 = APPROVAL ( #859, 'UNSPECIFIED' ) ;
#126 = ORIENTED_EDGE ( 'NONE', *, *, #12, .F. ) ;
#127 = VECTOR ( 'NONE', #973, 1000.000000000000000 ) ;
#128 = EDGE_LOOP ( 'NONE', ( #894, #28, #980, #120 ) ) ;
#129 = DIRECTION ( 'NONE',  ( -0.000000000000000000, -1.000000000000000000, -0.000000000000000000 ) ) ;
#130 = CARTESIAN_POINT ( 'NONE',  ( 79.70000000000000284, 0.000000000000000000, -112.2399999999999949 ) ) ;
#131 = FACE_OUTER_BOUND ( 'NONE', #798, .T. ) ;
#132 = CARTESIAN_POINT ( 'NONE',  ( 0.000000000000000000, 0.000000000000000000, -36.00000000000000711 ) ) ;
#133 = ORIENTED_EDGE ( 'NONE', *, *, #749, .F. ) ;
#134 = ADVANCED_FACE ( 'NONE', ( #831 ), #771, .F. ) ;
#135 = CARTESIAN_POINT ( 'NONE',  ( 81.70000000000000284, 14.00000000000000000, 0.000000000000000000 ) ) ;
#136 = CARTESIAN_POINT ( 'NONE',  ( 16.91892431568863486, 8.500000000000000000, -36.00000000000000711 ) ) ;
#137 = LINE ( 'NONE', #442, #977 ) ;
#138 = LINE ( 'NONE', #627, #105 ) ;
#139 = ORIENTED_EDGE ( 'NONE', *, *, #393, .T. ) ;
#140 = CARTESIAN_POINT ( 'NONE',  ( 0.000000000000000000, 14.00000000000000000, 0.000000000000000000 ) ) ;
#141 = CARTESIAN_POINT ( 'NONE',  ( 205.1614862453836565, -7.301511380992067757, -117.2399999999999949 ) ) ;
#142 = LINE ( 'NONE', #212, #162 ) ;
#143 = CARTESIAN_POINT ( 'NONE',  ( 2.000000000000000000, 7.000000000000000000, -78.23999999999998067 ) ) ;
#144 = AXIS2_PLACEMENT_3D ( 'NONE', #465, #79, #881 ) ;
#145 = VECTOR ( 'NONE', #293, 1000.000000000000000 ) ;
#146 = DIRECTION ( 'NONE',  ( 0.000000000000000000, 0.000000000000000000, 1.000000000000000000 ) ) ;
#147 = DATE_TIME_ROLE ( 'creation_date' ) ;
#148 = FACE_OUTER_BOUND ( 'NONE', #201, .T. ) ;
#149 = CARTESIAN_POINT ( 'NONE',  ( 2.000000000000001776, 7.000000000000000000, -2.000000000000000000 ) ) ;
#150 = CARTESIAN_POINT ( 'NONE',  ( -3.000000000000000000, 14.00000000000000000, 0.000000000000000000 ) ) ;
#151 = ORIENTED_EDGE ( 'NONE', *, *, #696, .F. ) ;
#152 = DIRECTION ( 'NONE',  ( 0.000000000000000000, -1.000000000000000000, 0.000000000000000000 ) ) ;
#153 = COORDINATED_UNIVERSAL_TIME_OFFSET ( 1, 0, .AHEAD. ) ;
#154 = DIRECTION ( 'NONE',  ( -0.000000000000000000, -1.000000000000000000, -0.000000000000000000 ) ) ;
#155 = ADVANCED_FACE ( 'NONE', ( #778 ), #695, .T. ) ;
#156 = EDGE_LOOP ( 'NONE', ( #341, #678, #114, #737 ) ) ;
#157 = CARTESIAN_POINT ( 'NONE',  ( -3.000000000000007550, -1.065124038858662470, 1.757359312880707458 ) ) ;
#158 = ORIENTED_EDGE ( 'NONE', *, *, #970, .T. ) ;
#159 = AXIS2_PLACEMENT_3D ( 'NONE', #865, #152, #679 ) ;
#160 = AXIS2_PLACEMENT_3D ( 'NONE', #986, #404, #170 ) ;
#161 = PERSON_AND_ORGANIZATION ( #399, #806 ) ;
#162 = VECTOR ( 'NONE', #830, 1000.000000000000000 ) ;
#163 = DIRECTION ( 'NONE',  ( -0.000000000000000000, -0.000000000000000000, 1.000000000000000000 ) ) ;
#164 = ORIENTED_EDGE ( 'NONE', *, *, #26, .F. ) ;
#165 = ADVANCED_FACE ( 'NONE', ( #1020 ), #118, .F. ) ;
#166 = DIRECTION ( 'NONE',  ( -1.000000000000000000, 0.000000000000000000, 1.786073076938797487E-16 ) ) ;
#167 = ORIENTED_EDGE ( 'NONE', *, *, #727, .T. ) ;
#168 = ADVANCED_FACE ( 'NONE', ( #205 ), #609, .F. ) ;
#169 = DIRECTION ( 'NONE',  ( 0.000000000000000000, 0.000000000000000000, -1.000000000000000000 ) ) ;
#170 = DIRECTION ( 'NONE',  ( 0.000000000000000000, 0.000000000000000000, 1.000000000000000000 ) ) ;
#171 = ORIENTED_EDGE ( 'NONE', *, *, #635, .F. ) ;
#172 = VECTOR ( 'NONE', #299, 1000.000000000000000 ) ;
#173 = VECTOR ( 'NONE', #268, 1000.000000000000000 ) ;
#174 = CARTESIAN_POINT ( 'NONE',  ( -3.000000000000000000, 14.00000000000000000, -20.00000000000000000 ) ) ;
#175 = PLANE ( 'NONE',  #385 ) ;
#176 = ORIENTED_EDGE ( 'NONE', *, *, #92, .T. ) ;
#177 = FACE_OUTER_BOUND ( 'NONE', #254, .T. ) ;
#178 = DIRECTION ( 'NONE',  ( 1.000000000000000000, -0.000000000000000000, 0.000000000000000000 ) ) ;
#179 = EDGE_CURVE ( 'NONE', #192, #684, #844, .T. ) ;
#180 = VERTEX_POINT ( 'NONE', #1023 ) ;
#181 = ADVANCED_FACE ( 'NONE', ( #603 ), #438, .T. ) ;
#182 = ORIENTED_EDGE ( 'NONE', *, *, #85, .T. ) ;
#183 = DIRECTION ( 'NONE',  ( -1.000000000000000000, 0.000000000000000000, 0.000000000000000000 ) ) ;
#184 = UNCERTAINTY_MEASURE_WITH_UNIT (LENGTH_MEASURE( 1.000000000000000082E-05 ), #682, 'distance_accuracy_value', 'NONE');
#185 = PLANE ( 'NONE',  #160 ) ;
#186 = ORIENTED_EDGE ( 'NONE', *, *, #868, .T. ) ;
#187 = EDGE_CURVE ( 'NONE', #591, #753, #43, .T. ) ;
#188 = DIRECTION ( 'NONE',  ( 0.000000000000000000, -1.000000000000000000, 0.000000000000000000 ) ) ;
#189 = CARTESIAN_POINT ( 'NONE',  ( 0.000000000000000000, 0.000000000000000000, -78.23999999999998067 ) ) ;
#190 = VECTOR ( 'NONE', #989, 1000.000000000000000 ) ;
#191 = VERTEX_POINT ( 'NONE', #200 ) ;
#192 = VERTEX_POINT ( 'NONE', #450 ) ;
#193 = CARTESIAN_POINT ( 'NONE',  ( 16.91892431568863486, 8.500000000000000000, -20.00000000000000000 ) ) ;
#194 = DIRECTION ( 'NONE',  ( 0.000000000000000000, 1.000000000000000000, -0.000000000000000000 ) ) ;
#195 = ORIENTED_EDGE ( 'NONE', *, *, #387, .F. ) ;
#196 = ORIENTED_EDGE ( 'NONE', *, *, #4, .F. ) ;
#197 = DIRECTION ( 'NONE',  ( -0.000000000000000000, 1.000000000000000000, -0.000000000000000000 ) ) ;
#198 = EDGE_CURVE ( 'NONE', #422, #65, #683, .T. ) ;
#199 = CARTESIAN_POINT ( 'NONE',  ( 83.45735931288074028, -0.9999999999999965583, 3.000000000000000000 ) ) ;
#200 = CARTESIAN_POINT ( 'NONE',  ( 0.000000000000000000, 8.500000000000000000, -36.00000000000000711 ) ) ;
#201 = EDGE_LOOP ( 'NONE', ( #195, #848, #913, #338 ) ) ;
#202 = ORIENTED_EDGE ( 'NONE', *, *, #235, .F. ) ;
#203 = LINE ( 'NONE', #1003, #636 ) ;
#204 = PLANE ( 'NONE',  #1032 ) ;
#205 = FACE_OUTER_BOUND ( 'NONE', #487, .T. ) ;
#206 = ORIENTED_EDGE ( 'NONE', *, *, #1035, .T. ) ;
#207 = VECTOR ( 'NONE', #257, 1000.000000000000000 ) ;
#208 = APPROVAL_PERSON_ORGANIZATION ( #161, #125, #2 ) ;
#209 = FACE_OUTER_BOUND ( 'NONE', #931, .T. ) ;
#210 = CARTESIAN_POINT ( 'NONE',  ( 0.000000000000000000, 7.000000000000000000, -20.00000000000000000 ) ) ;
#211 =( NAMED_UNIT ( * ) SI_UNIT ( $, .STERADIAN. ) SOLID_ANGLE_UNIT ( ) );
#212 = CARTESIAN_POINT ( 'NONE',  ( -3.000000000000000000, 14.00000000000000000, 0.000000000000000000 ) ) ;
#213 = LINE ( 'NONE', #523, #430 ) ;
#214 = EDGE_LOOP ( 'NONE', ( #121, #969, #427, #337 ) ) ;
#215 = EDGE_CURVE ( 'NONE', #1024, #897, #1012, .T. ) ;
#216 = DIRECTION ( 'NONE',  ( 1.000000000000000000, 0.000000000000000000, -0.000000000000000000 ) ) ;
#217 = CARTESIAN_POINT ( 'NONE',  ( 0.000000000000000000, 14.00000000000000000, -78.23999999999998067 ) ) ;
#218 = CARTESIAN_POINT ( 'NONE',  ( 79.70000000000000284, 7.000000000000000000, -2.000000000000003553 ) ) ;
#219 = DIRECTION ( 'NONE',  ( 0.000000000000000000, 0.000000000000000000, 1.000000000000000000 ) ) ;
#220 = ORIENTED_EDGE ( 'NONE', *, *, #495, .T. ) ;
#221 = ORIENTED_EDGE ( 'NONE', *, *, #247, .F. ) ;
#222 = DIRECTION ( 'NONE',  ( 0.000000000000000000, 0.000000000000000000, -1.000000000000000000 ) ) ;
#223 = CYLINDRICAL_SURFACE ( 'NONE', #793, 3.000000000000002665 ) ;
#224 = DIRECTION ( 'NONE',  ( 0.000000000000000000, -0.05233595624293716636, -0.9986295347545742773 ) ) ;
#225 = ORIENTED_EDGE ( 'NONE', *, *, #680, .T. ) ;
#226 = CIRCLE ( 'NONE', #717, 3.000000000000002665 ) ;
#227 = VECTOR ( 'NONE', #613, 1000.000000000000114 ) ;
#228 = FACE_OUTER_BOUND ( 'NONE', #582, .T. ) ;
#229 = VECTOR ( 'NONE', #855, 1000.000000000000000 ) ;
#230 = CARTESIAN_POINT ( 'NONE',  ( 0.000000000000000000, 0.000000000000000000, 0.000000000000000000 ) ) ;
#231 = CARTESIAN_POINT ( 'NONE',  ( 0.000000000000000000, 14.00000000000000000, -114.2399999999999949 ) ) ;
#232 = ORIENTED_EDGE ( 'NONE', *, *, #1035, .F. ) ;
#233 = CARTESIAN_POINT ( 'NONE',  ( 0.000000000000000000, 0.000000000000000000, -20.00000000000000000 ) ) ;
#234 = PERSON_AND_ORGANIZATION_ROLE ( 'creator' ) ;
#235 = EDGE_CURVE ( 'NONE', #1013, #429, #213, .T. ) ;
#236 = CARTESIAN_POINT ( 'NONE',  ( -1.757359312880721225, -0.9999999999999965583, 3.000000000000000000 ) ) ;
#237 = EDGE_CURVE ( 'NONE', #422, #421, #138, .T. ) ;
#238 = ORIENTED_EDGE ( 'NONE', *, *, #39, .T. ) ;
#239 = PERSON_AND_ORGANIZATION ( #399, #806 ) ;
#240 = DIRECTION ( 'NONE',  ( -9.637352644315594010E-17, -0.000000000000000000, -1.000000000000000000 ) ) ;
#241 = ORIENTED_EDGE ( 'NONE', *, *, #1004, .F. ) ;
#242 = VECTOR ( 'NONE', #729, 1000.000000000000000 ) ;
#243 = APPROVAL_DATE_TIME ( #313, #816 ) ;
#244 =( GEOMETRIC_REPRESENTATION_CONTEXT ( 3 ) GLOBAL_UNCERTAINTY_ASSIGNED_CONTEXT ( ( #184 ) ) GLOBAL_UNIT_ASSIGNED_CONTEXT ( ( #682, #835, #211 ) ) REPRESENTATION_CONTEXT ( 'NONE', 'WORKASPACE' ) );
#245 = LINE ( 'NONE', #551, #401 ) ;
#246 = VERTEX_POINT ( 'NONE', #863 ) ;
#247 = EDGE_CURVE ( 'NONE', #993, #191, #950, .T. ) ;
#248 = CARTESIAN_POINT ( 'NONE',  ( 0.000000000000000000, 14.00000000000000000, -114.2399999999999949 ) ) ;
#249 = FACE_OUTER_BOUND ( 'NONE', #156, .T. ) ;
#250 = VERTEX_POINT ( 'NONE', #792 ) ;
#251 = EDGE_CURVE ( 'NONE', #937, #103, #245, .T. ) ;
#252 = LINE ( 'NONE', #174, #348 ) ;
#253 = CARTESIAN_POINT ( 'NONE',  ( 0.000000000000000000, 14.00000000000000000, 3.000000000000000000 ) ) ;
#254 = EDGE_LOOP ( 'NONE', ( #272, #504, #489, #764 ) ) ;
#255 = PLANE ( 'NONE',  #304 ) ;
#256 = PRODUCT_DEFINITION_FORMATION_WITH_SPECIFIED_SOURCE ( 'ANY', '', #381, .NOT_KNOWN. ) ;
#257 = DIRECTION ( 'NONE',  ( -0.000000000000000000, -1.000000000000000000, -0.000000000000000000 ) ) ;
#258 = ORIENTED_EDGE ( 'NONE', *, *, #672, .T. ) ;
#259 = VERTEX_POINT ( 'NONE', #475 ) ;
#260 = CARTESIAN_POINT ( 'NONE',  ( 2.000000000000001776, 7.000000000000000000, -94.23999999999998067 ) ) ;
#261 = DIRECTION ( 'NONE',  ( -0.000000000000000000, -1.000000000000000000, -0.000000000000000000 ) ) ;
#262 = EDGE_CURVE ( 'NONE', #429, #439, #394, .T. ) ;
#263 = ORIENTED_EDGE ( 'NONE', *, *, #971, .T. ) ;
#264 = ORIENTED_EDGE ( 'NONE', *, *, #198, .F. ) ;
#265 = CARTESIAN_POINT ( 'NONE',  ( 16.91892431568863486, 8.500000000000000000, -94.23999999999998067 ) ) ;
#266 = CARTESIAN_POINT ( 'NONE',  ( 0.000000000000000000, 14.00000000000000000, -36.00000000000000711 ) ) ;
#267 = EDGE_LOOP ( 'NONE', ( #23, #632, #411, #653 ) ) ;
#268 = DIRECTION ( 'NONE',  ( -1.232047923278983185E-16, -0.000000000000000000, -1.000000000000000000 ) ) ;
#269 = VECTOR ( 'NONE', #154, 1000.000000000000000 ) ;
#270 = CARTESIAN_POINT ( 'NONE',  ( -3.000000000000000000, 8.500000000000000000, -36.00000000000000711 ) ) ;
#271 = VECTOR ( 'NONE', #942, 1000.000000000000000 ) ;
#272 = ORIENTED_EDGE ( 'NONE', *, *, #39, .F. ) ;
#273 = EDGE_CURVE ( 'NONE', #993, #65, #472, .T. ) ;
#274 = ORIENTED_EDGE ( 'NONE', *, *, #571, .T. ) ;
#275 = DIRECTION ( 'NONE',  ( 1.000000000000000000, -0.000000000000000000, -0.000000000000000000 ) ) ;
#276 = LINE ( 'NONE', #149, #1017 ) ;
#277 = CARTESIAN_POINT ( 'NONE',  ( 0.000000000000000000, 7.000000000000000000, -114.2399999999999949 ) ) ;
#278 = DIRECTION ( 'NONE',  ( -1.000000000000000000, 0.000000000000000000, 0.000000000000000000 ) ) ;
#279 = ORIENTED_EDGE ( 'NONE', *, *, #262, .T. ) ;
#280 = LINE ( 'NONE', #136, #145 ) ;
#281 = LINE ( 'NONE', #270, #22 ) ;
#282 = DIRECTION ( 'NONE',  ( 4.465182692346993718E-17, -0.000000000000000000, 1.000000000000000000 ) ) ;
#283 = ORIENTED_EDGE ( 'NONE', *, *, #650, .F. ) ;
#284 = PLANE ( 'NONE',  #88 ) ;
#285 = CARTESIAN_POINT ( 'NONE',  ( 2.000000000000005329, 7.000000000000000000, -36.00000000000000711 ) ) ;
#286 = FACE_OUTER_BOUND ( 'NONE', #1, .T. ) ;
#287 = LINE ( 'NONE', #56, #875 ) ;
#288 = AXIS2_PLACEMENT_3D ( 'NONE', #917, #282, #434 ) ;
#289 = ADVANCED_FACE ( 'NONE', ( #630 ), #797, .F. ) ;
#290 = VECTOR ( 'NONE', #178, 1000.000000000000000 ) ;
#291 = ORIENTED_EDGE ( 'NONE', *, *, #696, .T. ) ;
#292 = LINE ( 'NONE', #52, #702 ) ;
#293 = DIRECTION ( 'NONE',  ( -1.000000000000000000, 0.000000000000000000, 0.000000000000000000 ) ) ;
#294 = LINE ( 'NONE', #123, #433 ) ;
#295 = VERTEX_POINT ( 'NONE', #867 ) ;
#296 = DIRECTION ( 'NONE',  ( -0.000000000000000000, 1.000000000000000000, -0.000000000000000000 ) ) ;
#297 = CALENDAR_DATE ( 2026, 17, 2 ) ;
#298 = CARTESIAN_POINT ( 'NONE',  ( -3.000000000000000000, -7.301511380992067757, -117.2399999999999949 ) ) ;
#299 = DIRECTION ( 'NONE',  ( -1.000000000000000000, 0.000000000000000000, 0.000000000000000000 ) ) ;
#300 = ORIENTED_EDGE ( 'NONE', *, *, #408, .T. ) ;
#301 = FACE_OUTER_BOUND ( 'NONE', #428, .T. ) ;
#302 = COORDINATED_UNIVERSAL_TIME_OFFSET ( 1, 0, .AHEAD. ) ;
#303 = LINE ( 'NONE', #619, #567 ) ;
#304 = AXIS2_PLACEMENT_3D ( 'NONE', #104, #183, #975 ) ;
#305 = EDGE_LOOP ( 'NONE', ( #33, #241, #372, #549 ) ) ;
#306 = VECTOR ( 'NONE', #935, 1000.000000000000000 ) ;
#307 = DIRECTION ( 'NONE',  ( 1.000000000000000000, -0.000000000000000000, 0.000000000000000000 ) ) ;
#308 = APPLICATION_PROTOCOL_DEFINITION ( 'international standard', 'config_control_design', 1994, #825 ) ;
#309 = ADVANCED_FACE ( 'NONE', ( #314 ), #787, .F. ) ;
#310 = DIRECTION ( 'NONE',  ( 0.000000000000000000, 0.000000000000000000, 1.000000000000000000 ) ) ;
#311 = CARTESIAN_POINT ( 'NONE',  ( -3.000000000000000000, -1.157223337849104361, -1.387778780781445676E-14 ) ) ;
#312 = ORIENTED_EDGE ( 'NONE', *, *, #179, .T. ) ;
#313 = DATE_AND_TIME ( #391, #350 ) ;
#314 = FACE_OUTER_BOUND ( 'NONE', #1014, .T. ) ;
#315 = CC_DESIGN_PERSON_AND_ORGANIZATION_ASSIGNMENT ( #949, #954, ( #381 ) ) ;
#316 = VERTEX_POINT ( 'NONE', #964 ) ;
#317 = AXIS2_PLACEMENT_3D ( 'NONE', #943, #124, #224 ) ;
#318 = VECTOR ( 'NONE', #505, 1000.000000000000000 ) ;
#319 = CC_DESIGN_APPROVAL ( #125, ( #256 ) ) ;
#320 = LINE ( 'NONE', #544, #803 ) ;
#321 = ORIENTED_EDGE ( 'NONE', *, *, #662, .F. ) ;
#322 = EDGE_CURVE ( 'NONE', #316, #250, #226, .T. ) ;
#323 =( BOUNDED_CURVE ( )  B_SPLINE_CURVE ( 3, ( #485, #724, #884, #728 ),
 .UNSPECIFIED., .F., .F. ) 
 B_SPLINE_CURVE_WITH_KNOTS ( ( 4, 4 ),
 ( 1.570796326794896558, 3.141592653589793116 ),
 .UNSPECIFIED. ) 
 CURVE ( )  GEOMETRIC_REPRESENTATION_ITEM ( )  RATIONAL_B_SPLINE_CURVE ( ( 1.000000000000000000, 0.8047378541243649375, 0.8047378541243649375, 1.000000000000000000 ) ) 
 REPRESENTATION_ITEM ( '' )  );
#324 = CARTESIAN_POINT ( 'NONE',  ( 0.000000000000000000, 7.000000000000000000, -114.2399999999999949 ) ) ;
#325 = CARTESIAN_POINT ( 'NONE',  ( 2.000000000000000000, 7.000000000000000000, -78.23999999999998067 ) ) ;
#326 = VERTEX_POINT ( 'NONE', #716 ) ;
#327 = EDGE_CURVE ( 'NONE', #386, #5, #397, .T. ) ;
#328 = CARTESIAN_POINT ( 'NONE',  ( 2.000000000000000000, 7.000000000000000000, -20.00000000000000000 ) ) ;
#329 = CARTESIAN_POINT ( 'NONE',  ( -3.000000000000000000, -7.144288043142964284, -114.2399999999999949 ) ) ;
#330 = VERTEX_POINT ( 'NONE', #72 ) ;
#331 = VECTOR ( 'NONE', #953, 1000.000000000000000 ) ;
#332 = ORIENTED_EDGE ( 'NONE', *, *, #908, .T. ) ;
#333 = EDGE_CURVE ( 'NONE', #685, #180, #320, .T. ) ;
#334 = DIRECTION ( 'NONE',  ( 0.000000000000000000, -1.000000000000000000, 0.000000000000000000 ) ) ;
#335 = ADVANCED_BREP_SHAPE_REPRESENTATION ( 'Numpad', ( #754, #705 ), #244 ) ;
#336 = DIRECTION ( 'NONE',  ( -1.000000000000000000, 0.000000000000000000, 0.000000000000000000 ) ) ;
#337 = ORIENTED_EDGE ( 'NONE', *, *, #784, .T. ) ;
#338 = ORIENTED_EDGE ( 'NONE', *, *, #1029, .F. ) ;
#339 = DIRECTION ( 'NONE',  ( -1.000000000000000000, 0.000000000000000000, 0.000000000000000000 ) ) ;
#340 = FACE_OUTER_BOUND ( 'NONE', #51, .T. ) ;
#341 = ORIENTED_EDGE ( 'NONE', *, *, #625, .T. ) ;
#342 = ORIENTED_EDGE ( 'NONE', *, *, #966, .F. ) ;
#343 = CARTESIAN_POINT ( 'NONE',  ( 2.000000000000000000, 0.000000000000000000, -20.00000000000000000 ) ) ;
#344 = CARTESIAN_POINT ( 'NONE',  ( 84.70000000000001705, -1.157223337849101696, 0.000000000000000000 ) ) ;
#345 = CC_DESIGN_PERSON_AND_ORGANIZATION_ASSIGNMENT ( #471, #461, ( #61 ) ) ;
#346 = VERTEX_POINT ( 'NONE', #536 ) ;
#347 = LINE ( 'NONE', #834, #948 ) ;
#348 = VECTOR ( 'NONE', #496, 1000.000000000000000 ) ;
#349 = DIRECTION ( 'NONE',  ( 0.000000000000000000, 0.000000000000000000, -1.000000000000000000 ) ) ;
#350 = LOCAL_TIME ( 17, 7, 43.00000000000000000, #302 ) ;
#351 = DIRECTION ( 'NONE',  ( 0.000000000000000000, 0.000000000000000000, -1.000000000000000000 ) ) ;
#352 = VERTEX_POINT ( 'NONE', #150 ) ;
#353 = ORIENTED_EDGE ( 'NONE', *, *, #996, .T. ) ;
#354 = APPLICATION_CONTEXT ( 'configuration controlled 3d designs of mechanical parts and assemblies' ) ;
#355 = CARTESIAN_POINT ( 'NONE',  ( 0.000000000000000000, 14.00000000000000000, -117.2399999999999949 ) ) ;
#356 = LINE ( 'NONE', #743, #569 ) ;
#357 = FACE_OUTER_BOUND ( 'NONE', #1027, .T. ) ;
#358 = EDGE_LOOP ( 'NONE', ( #750, #113, #789, #473 ) ) ;
#359 = ORIENTED_EDGE ( 'NONE', *, *, #860, .T. ) ;
#360 = LINE ( 'NONE', #46, #889 ) ;
#361 = LINE ( 'NONE', #217, #752 ) ;
#362 = DIRECTION ( 'NONE',  ( -9.637352644315594010E-17, -0.000000000000000000, -1.000000000000000000 ) ) ;
#363 = DIRECTION ( 'NONE',  ( 9.637352644315594010E-17, 0.000000000000000000, 1.000000000000000000 ) ) ;
#364 = ORIENTED_EDGE ( 'NONE', *, *, #939, .T. ) ;
#365 = LINE ( 'NONE', #616, #480 ) ;
#366 = CARTESIAN_POINT ( 'NONE',  ( 2.000000000000005329, 0.000000000000000000, -36.00000000000000711 ) ) ;
#367 = CARTESIAN_POINT ( 'NONE',  ( 84.69999999999998863, -1.065124038858662248, 1.757359312880714786 ) ) ;
#368 = CARTESIAN_POINT ( 'NONE',  ( 0.000000000000000000, 14.00000000000000000, 3.000000000000000000 ) ) ;
#369 = AXIS2_PLACEMENT_3D ( 'NONE', #677, #1006, #36 ) ;
#370 = ORIENTED_EDGE ( 'NONE', *, *, #970, .F. ) ;
#371 = AXIS2_PLACEMENT_3D ( 'NONE', #449, #777, #676 ) ;
#372 = ORIENTED_EDGE ( 'NONE', *, *, #262, .F. ) ;
#373 = DIRECTION ( 'NONE',  ( 0.000000000000000000, -0.000000000000000000, 1.000000000000000000 ) ) ;
#374 = FACE_OUTER_BOUND ( 'NONE', #658, .T. ) ;
#375 = DIRECTION ( 'NONE',  ( -0.000000000000000000, -1.000000000000000000, -0.000000000000000000 ) ) ;
#376 = CARTESIAN_POINT ( 'NONE',  ( 2.000000000000000000, 7.000000000000000000, -20.00000000000000000 ) ) ;
#377 = EDGE_CURVE ( 'NONE', #637, #898, #424, .T. ) ;
#378 = ORIENTED_EDGE ( 'NONE', *, *, #642, .F. ) ;
#379 = ORIENTED_EDGE ( 'NONE', *, *, #4, .T. ) ;
#380 = VERTEX_POINT ( 'NONE', #384 ) ;
#381 = PRODUCT ( 'Numpad', 'Numpad', '', ( #633 ) ) ;
#382 = EDGE_CURVE ( 'NONE', #605, #901, #303, .T. ) ;
#383 = ORIENTED_EDGE ( 'NONE', *, *, #333, .T. ) ;
#384 = CARTESIAN_POINT ( 'NONE',  ( -3.000000000000000000, 8.500000000000000000, -20.00000000000000000 ) ) ;
#385 = AXIS2_PLACEMENT_3D ( 'NONE', #483, #736, #96 ) ;
#386 = VERTEX_POINT ( 'NONE', #1033 ) ;
#387 = EDGE_CURVE ( 'NONE', #965, #418, #91, .T. ) ;
#388 = SHAPE_DEFINITION_REPRESENTATION ( #959, #335 ) ;
#389 = DIRECTION ( 'NONE',  ( -0.000000000000000000, -1.000000000000000000, -0.000000000000000000 ) ) ;
#390 = EDGE_LOOP ( 'NONE', ( #869, #97, #1034, #383 ) ) ;
#391 = CALENDAR_DATE ( 2026, 17, 2 ) ;
#392 = PRODUCT_RELATED_PRODUCT_CATEGORY ( 'detail', '', ( #381 ) ) ;
#393 = EDGE_CURVE ( 'NONE', #259, #44, #979, .T. ) ;
#394 = LINE ( 'NONE', #703, #58 ) ;
#395 = ORIENTED_EDGE ( 'NONE', *, *, #45, .F. ) ;
#396 = CALENDAR_DATE ( 2026, 17, 2 ) ;
#397 = LINE ( 'NONE', #6, #269 ) ;
#398 = EDGE_CURVE ( 'NONE', #822, #421, #956, .T. ) ;
#399 = PERSON ( 'UNSPECIFIED', 'UNSPECIFIED', 'UNSPECIFIED', ('UNSPECIFIED'), ('UNSPECIFIED'), ('UNSPECIFIED') ) ;
#400 = ORIENTED_EDGE ( 'NONE', *, *, #902, .T. ) ;
#401 = VECTOR ( 'NONE', #3, 1000.000000000000000 ) ;
#402 = VECTOR ( 'NONE', #409, 1000.000000000000000 ) ;
#403 = DIRECTION ( 'NONE',  ( 0.000000000000000000, 0.000000000000000000, 1.000000000000000000 ) ) ;
#404 = DIRECTION ( 'NONE',  ( -1.000000000000000000, 0.000000000000000000, 0.000000000000000000 ) ) ;
#405 = LINE ( 'NONE', #570, #59 ) ;
#406 = CARTESIAN_POINT ( 'NONE',  ( 2.000000000000000000, 7.000000000000000000, -112.2399999999999807 ) ) ;
#407 = ORIENTED_EDGE ( 'NONE', *, *, #382, .T. ) ;
#408 = EDGE_CURVE ( 'NONE', #832, #326, #876, .T. ) ;
#409 = DIRECTION ( 'NONE',  ( 0.000000000000000000, -1.000000000000000000, 0.000000000000000000 ) ) ;
#410 = CARTESIAN_POINT ( 'NONE',  ( -3.000000000000000000, 0.000000000000000000, -20.00000000000000000 ) ) ;
#411 = ORIENTED_EDGE ( 'NONE', *, *, #493, .F. ) ;
#412 = AXIS2_PLACEMENT_3D ( 'NONE', #368, #351, #590 ) ;
#413 = ORIENTED_EDGE ( 'NONE', *, *, #1026, .T. ) ;
#414 = AXIS2_PLACEMENT_3D ( 'NONE', #813, #334, #169 ) ;
#415 = DIRECTION ( 'NONE',  ( 1.000000000000000000, -0.000000000000000000, -0.000000000000000000 ) ) ;
#416 = LOCAL_TIME ( 17, 7, 43.00000000000000000, #542 ) ;
#417 = CARTESIAN_POINT ( 'NONE',  ( 0.000000000000000000, 14.00000000000000000, -78.23999999999998067 ) ) ;
#418 = VERTEX_POINT ( 'NONE', #735 ) ;
#419 = ADVANCED_FACE ( 'NONE', ( #13 ), #95, .F. ) ;
#420 = CARTESIAN_POINT ( 'NONE',  ( 2.000000000000001776, 0.000000000000000000, -94.23999999999998067 ) ) ;
#421 = VERTEX_POINT ( 'NONE', #343 ) ;
#422 = VERTEX_POINT ( 'NONE', #646 ) ;
#423 = CARTESIAN_POINT ( 'NONE',  ( 0.000000000000000000, -7.301511380992067757, -117.2399999999999949 ) ) ;
#424 =( BOUNDED_CURVE ( )  B_SPLINE_CURVE ( 3, ( #462, #547, #783, #69 ),
 .UNSPECIFIED., .F., .T. ) 
 B_SPLINE_CURVE_WITH_KNOTS ( ( 4, 4 ),
 ( 0.000000000000000000, 1.570796326794896558 ),
 .UNSPECIFIED. ) 
 CURVE ( )  GEOMETRIC_REPRESENTATION_ITEM ( )  RATIONAL_B_SPLINE_CURVE ( ( 1.000000000000000000, 0.8047378541243649375, 0.8047378541243649375, 1.000000000000000000 ) ) 
 REPRESENTATION_ITEM ( '' )  );
#425 = CARTESIAN_POINT ( 'NONE',  ( 0.000000000000000000, 0.000000000000000000, 0.000000000000000000 ) ) ;
#426 = DIRECTION ( 'NONE',  ( 1.232047923278983185E-16, 0.000000000000000000, 1.000000000000000000 ) ) ;
#427 = ORIENTED_EDGE ( 'NONE', *, *, #493, .T. ) ;
#428 = EDGE_LOOP ( 'NONE', ( #738, #592, #452, #905, #463, #719, #615, #332, #511, #987, #748, #952 ) ) ;
#429 = VERTEX_POINT ( 'NONE', #643 ) ;
#430 = VECTOR ( 'NONE', #851, 1000.000000000000000 ) ;
#431 = DIRECTION ( 'NONE',  ( -1.000000000000000000, 0.000000000000000000, 0.000000000000000000 ) ) ;
#432 = LINE ( 'NONE', #522, #621 ) ;
#433 = VECTOR ( 'NONE', #117, 1000.000000000000000 ) ;
#434 = DIRECTION ( 'NONE',  ( 1.000000000000000000, 0.000000000000000000, -4.465182692346993718E-17 ) ) ;
#435 = DIRECTION ( 'NONE',  ( 0.000000000000000000, 0.000000000000000000, -1.000000000000000000 ) ) ;
#436 = CARTESIAN_POINT ( 'NONE',  ( 0.000000000000000000, 14.00000000000000000, 3.000000000000000000 ) ) ;
#437 = DIRECTION ( 'NONE',  ( -0.000000000000000000, -1.000000000000000000, -0.000000000000000000 ) ) ;
#438 = PLANE ( 'NONE',  #494 ) ;
#439 = VERTEX_POINT ( 'NONE', #809 ) ;
#440 = CARTESIAN_POINT ( 'NONE',  ( 0.000000000000000000, 14.00000000000000000, -94.23999999999998067 ) ) ;
#441 = LINE ( 'NONE', #193, #718 ) ;
#442 = CARTESIAN_POINT ( 'NONE',  ( 84.70000000000001705, 14.00000000000000000, 0.000000000000000000 ) ) ;
#443 = DIRECTION ( 'NONE',  ( -1.000000000000000000, 0.000000000000000000, -0.000000000000000000 ) ) ;
#444 = ORIENTED_EDGE ( 'NONE', *, *, #890, .T. ) ;
#445 = ORIENTED_EDGE ( 'NONE', *, *, #650, .T. ) ;
#446 = PLANE ( 'NONE',  #288 ) ;
#447 = ADVANCED_FACE ( 'NONE', ( #564 ), #255, .T. ) ;
#448 = DIRECTION ( 'NONE',  ( 1.000000000000000000, -0.000000000000000000, 0.000000000000000000 ) ) ;
#449 = CARTESIAN_POINT ( 'NONE',  ( 0.000000000000000000, 14.00000000000000000, -20.00000000000000000 ) ) ;
#450 = CARTESIAN_POINT ( 'NONE',  ( -3.000000000000000000, 0.000000000000000000, -36.00000000000000711 ) ) ;
#451 = AXIS2_PLACEMENT_3D ( 'NONE', #858, #853, #146 ) ;
#452 = ORIENTED_EDGE ( 'NONE', *, *, #273, .F. ) ;
#453 = VECTOR ( 'NONE', #431, 1000.000000000000000 ) ;
#454 = CC_DESIGN_APPROVAL ( #707, ( #946 ) ) ;
#455 = PLANE ( 'NONE',  #75 ) ;
#456 = SECURITY_CLASSIFICATION_LEVEL ( 'unclassified' ) ;
#457 = DIRECTION ( 'NONE',  ( 0.000000000000000000, 0.000000000000000000, 1.000000000000000000 ) ) ;
#458 = CC_DESIGN_PERSON_AND_ORGANIZATION_ASSIGNMENT ( #81, #234, ( #946 ) ) ;
#459 = DIRECTION ( 'NONE',  ( 0.000000000000000000, 0.000000000000000000, 1.000000000000000000 ) ) ;
#460 = CARTESIAN_POINT ( 'NONE',  ( 81.70000000000000284, 7.000000000000000000, -114.2399999999999949 ) ) ;
#461 = PERSON_AND_ORGANIZATION_ROLE ( 'classification_officer' ) ;
#462 = CARTESIAN_POINT ( 'NONE',  ( 81.70000000000000284, -7.301511380992067757, -117.2399999999999949 ) ) ;
#463 = ORIENTED_EDGE ( 'NONE', *, *, #749, .T. ) ;
#464 = COORDINATED_UNIVERSAL_TIME_OFFSET ( 1, 0, .AHEAD. ) ;
#465 = CARTESIAN_POINT ( 'NONE',  ( 0.000000000000000000, 7.000000000000000000, 0.000000000000000000 ) ) ;
#466 = CLOSED_SHELL ( 'NONE', ( #921, #883, #134, #741, #880, #555, #94, #470, #447, #116, #38, #838, #155, #110, #788, #712, #518, #548, #909, #168, #289, #165, #309, #16, #98, #419, #181, #691, #76 ) ) ;
#467 = VECTOR ( 'NONE', #122, 1000.000000000000000 ) ;
#468 = ORIENTED_EDGE ( 'NONE', *, *, #631, .T. ) ;
#469 = VECTOR ( 'NONE', #589, 1000.000000000000000 ) ;
#470 = ADVANCED_FACE ( 'NONE', ( #578 ), #981, .T. ) ;
#471 = PERSON_AND_ORGANIZATION ( #399, #806 ) ;
#472 = LINE ( 'NONE', #639, #994 ) ;
#473 = ORIENTED_EDGE ( 'NONE', *, *, #53, .T. ) ;
#474 = APPROVAL_STATUS ( 'not_yet_approved' ) ;
#475 = CARTESIAN_POINT ( 'NONE',  ( 0.000000000000000000, -1.000000000000000000, 3.000000000000000000 ) ) ;
#476 = EDGE_LOOP ( 'NONE', ( #133, #468, #445, #312, #886, #573 ) ) ;
#477 = CARTESIAN_POINT ( 'NONE',  ( 0.000000000000000000, -0.9999999999999991118, 3.000000000000000000 ) ) ;
#478 = DIRECTION ( 'NONE',  ( 0.000000000000000000, -0.000000000000000000, 1.000000000000000000 ) ) ;
#479 = EDGE_LOOP ( 'NONE', ( #342, #597, #932, #225 ) ) ;
#480 = VECTOR ( 'NONE', #686, 1000.000000000000000 ) ;
#481 = VECTOR ( 'NONE', #437, 1000.000000000000000 ) ;
#482 = DIRECTION ( 'NONE',  ( 1.000000000000000000, 0.000000000000000000, -0.000000000000000000 ) ) ;
#483 = CARTESIAN_POINT ( 'NONE',  ( 0.000000000000000000, 14.00000000000000000, 0.000000000000000000 ) ) ;
#484 = EDGE_LOOP ( 'NONE', ( #291, #519, #167, #974 ) ) ;
#485 = CARTESIAN_POINT ( 'NONE',  ( -3.000000000000000000, -7.144288043142964284, -114.2399999999999949 ) ) ;
#486 = LINE ( 'NONE', #647, #821 ) ;
#487 = EDGE_LOOP ( 'NONE', ( #413, #645, #321, #444 ) ) ;
#488 = EDGE_CURVE ( 'NONE', #499, #937, #405, .T. ) ;
#489 = ORIENTED_EDGE ( 'NONE', *, *, #887, .F. ) ;
#490 = CARTESIAN_POINT ( 'NONE',  ( 0.000000000000000000, 14.00000000000000000, -114.2399999999999949 ) ) ;
#491 = DIRECTION ( 'NONE',  ( -1.000000000000000000, 0.000000000000000000, -0.000000000000000000 ) ) ;
#492 = EDGE_LOOP ( 'NONE', ( #400, #1025, #726, #283 ) ) ;
#493 = EDGE_CURVE ( 'NONE', #101, #295, #659, .T. ) ;
#494 = AXIS2_PLACEMENT_3D ( 'NONE', #670, #837, #219 ) ;
#495 = EDGE_CURVE ( 'NONE', #587, #386, #654, .T. ) ;
#496 = DIRECTION ( 'NONE',  ( -0.000000000000000000, -1.000000000000000000, -0.000000000000000000 ) ) ;
#497 = APPROVAL_PERSON_ORGANIZATION ( #624, #707, #84 ) ;
#498 = LINE ( 'NONE', #31, #755 ) ;
#499 = VERTEX_POINT ( 'NONE', #972 ) ;
#500 = ORIENTED_EDGE ( 'NONE', *, *, #790, .F. ) ;
#501 = CARTESIAN_POINT ( 'NONE',  ( -3.000000000000000000, 14.00000000000000000, 0.000000000000000000 ) ) ;
#502 = DIRECTION ( 'NONE',  ( 0.000000000000000000, 0.000000000000000000, 1.000000000000000000 ) ) ;
#503 = ORIENTED_EDGE ( 'NONE', *, *, #408, .F. ) ;
#504 = ORIENTED_EDGE ( 'NONE', *, *, #1010, .F. ) ;
#505 = DIRECTION ( 'NONE',  ( -1.000000000000000000, 0.000000000000000000, 0.000000000000000000 ) ) ;
#506 = LINE ( 'NONE', #776, #878 ) ;
#507 = FACE_OUTER_BOUND ( 'NONE', #914, .T. ) ;
#508 = CARTESIAN_POINT ( 'NONE',  ( 79.70000000000000284, 0.000000000000000000, -2.000000000000003553 ) ) ;
#509 = EDGE_CURVE ( 'NONE', #815, #259, #99, .T. ) ;
#510 = ORIENTED_EDGE ( 'NONE', *, *, #526, .T. ) ;
#511 = ORIENTED_EDGE ( 'NONE', *, *, #955, .T. ) ;
#512 = DIRECTION ( 'NONE',  ( -1.000000000000000000, -0.000000000000000000, 4.465182692346993718E-17 ) ) ;
#513 = VECTOR ( 'NONE', #655, 1000.000000000000000 ) ;
#514 = CARTESIAN_POINT ( 'NONE',  ( 0.000000000000000000, 7.000000000000000000, 0.000000000000000000 ) ) ;
#515 = AXIS2_PLACEMENT_3D ( 'NONE', #885, #478, #601 ) ;
#516 = DIRECTION ( 'NONE',  ( -1.000000000000000000, 0.000000000000000000, 1.232047923278983185E-16 ) ) ;
#517 = VERTEX_POINT ( 'NONE', #903 ) ;
#518 = ADVANCED_FACE ( 'NONE', ( #888 ), #895, .T. ) ;
#519 = ORIENTED_EDGE ( 'NONE', *, *, #1029, .T. ) ;
#520 = PLANE ( 'NONE',  #731 ) ;
#521 = CARTESIAN_POINT ( 'NONE',  ( 0.000000000000000000, 8.500000000000000000, -94.23999999999998067 ) ) ;
#522 = CARTESIAN_POINT ( 'NONE',  ( 81.70000000000000284, 7.000000000000000000, 0.000000000000000000 ) ) ;
#523 = CARTESIAN_POINT ( 'NONE',  ( 79.70000000000000284, 7.000000000000000000, -112.2399999999999949 ) ) ;
#524 = ORIENTED_EDGE ( 'NONE', *, *, #53, .F. ) ;
#525 = ORIENTED_EDGE ( 'NONE', *, *, #377, .T. ) ;
#526 = EDGE_CURVE ( 'NONE', #1002, #832, #9, .T. ) ;
#527 = FACE_OUTER_BOUND ( 'NONE', #538, .T. ) ;
#528 = CARTESIAN_POINT ( 'NONE',  ( 81.70000000000000284, 14.00000000000000000, -114.2399999999999949 ) ) ;
#529 = CARTESIAN_POINT ( 'NONE',  ( 79.70000000000000284, 0.000000000000000000, -2.000000000000003553 ) ) ;
#530 = CARTESIAN_POINT ( 'NONE',  ( 16.91892431568863486, 8.500000000000000000, -78.23999999999998067 ) ) ;
#531 = DIRECTION ( 'NONE',  ( 0.000000000000000000, 0.000000000000000000, 1.000000000000000000 ) ) ;
#532 = DATE_AND_TIME ( #958, #649 ) ;
#533 = DIRECTION ( 'NONE',  ( 0.000000000000000000, 1.000000000000000000, 0.000000000000000000 ) ) ;
#534 = EDGE_CURVE ( 'NONE', #730, #697, #323, .T. ) ;
#535 = LINE ( 'NONE', #48, #306 ) ;
#536 = CARTESIAN_POINT ( 'NONE',  ( 81.70000000000000284, -1.000000000000000000, 3.000000000000000000 ) ) ;
#537 = VECTOR ( 'NONE', #870, 1000.000000000000000 ) ;
#538 = EDGE_LOOP ( 'NONE', ( #274, #232, #80, #706 ) ) ;
#539 = APPROVAL_PERSON_ORGANIZATION ( #239, #816, #941 ) ;
#540 =( BOUNDED_CURVE ( )  B_SPLINE_CURVE ( 3, ( #344, #367, #199, #595 ),
 .UNSPECIFIED., .F., .F. ) 
 B_SPLINE_CURVE_WITH_KNOTS ( ( 4, 4 ),
 ( 1.570796326794896558, 3.141592653589793116 ),
 .UNSPECIFIED. ) 
 CURVE ( )  GEOMETRIC_REPRESENTATION_ITEM ( )  RATIONAL_B_SPLINE_CURVE ( ( 1.000000000000000000, 0.8047378541243649375, 0.8047378541243649375, 1.000000000000000000 ) ) 
 REPRESENTATION_ITEM ( '' )  );
#541 = PLANE ( 'NONE',  #159 ) ;
#542 = COORDINATED_UNIVERSAL_TIME_OFFSET ( 1, 0, .AHEAD. ) ;
#543 = EDGE_CURVE ( 'NONE', #380, #780, #252, .T. ) ;
#544 = CARTESIAN_POINT ( 'NONE',  ( 84.70000000000001705, 14.00000000000000000, 0.000000000000000000 ) ) ;
#545 = ORIENTED_EDGE ( 'NONE', *, *, #924, .F. ) ;
#546 = LINE ( 'NONE', #233, #537 ) ;
#547 = CARTESIAN_POINT ( 'NONE',  ( 83.45735931288074028, -7.301511380992065092, -117.2399999999999949 ) ) ;
#548 = ADVANCED_FACE ( 'NONE', ( #177 ), #18, .T. ) ;
#549 = ORIENTED_EDGE ( 'NONE', *, *, #866, .T. ) ;
#550 = DIRECTION ( 'NONE',  ( 0.000000000000000000, 0.000000000000000000, 1.000000000000000000 ) ) ;
#551 = CARTESIAN_POINT ( 'NONE',  ( 0.000000000000000000, 7.000000000000000000, 0.000000000000000000 ) ) ;
#552 = VECTOR ( 'NONE', #278, 1000.000000000000000 ) ;
#553 = AXIS2_PLACEMENT_3D ( 'NONE', #720, #188, #575 ) ;
#554 = ORIENTED_EDGE ( 'NONE', *, *, #571, .F. ) ;
#555 = ADVANCED_FACE ( 'NONE', ( #823, #111, #802 ), #739, .T. ) ;
#556 = CC_DESIGN_SECURITY_CLASSIFICATION ( #61, ( #256 ) ) ;
#557 = CARTESIAN_POINT ( 'NONE',  ( 79.70000000000000284, 7.000000000000000000, -112.2399999999999949 ) ) ;
#558 = EDGE_LOOP ( 'NONE', ( #407, #845, #938, #641 ) ) ;
#559 = EDGE_CURVE ( 'NONE', #32, #246, #347, .T. ) ;
#560 = DIRECTION ( 'NONE',  ( 0.000000000000000000, 0.000000000000000000, 1.000000000000000000 ) ) ;
#561 = PLANE ( 'NONE',  #515 ) ;
#562 = ORIENTED_EDGE ( 'NONE', *, *, #908, .F. ) ;
#563 = CC_DESIGN_PERSON_AND_ORGANIZATION_ASSIGNMENT ( #711, #67, ( #256 ) ) ;
#564 = FACE_OUTER_BOUND ( 'NONE', #479, .T. ) ;
#565 = DIRECTION ( 'NONE',  ( -9.637352644315594010E-17, -0.000000000000000000, -1.000000000000000000 ) ) ;
#566 = ORIENTED_EDGE ( 'NONE', *, *, #635, .T. ) ;
#567 = VECTOR ( 'NONE', #459, 1000.000000000000000 ) ;
#568 = AXIS2_PLACEMENT_3D ( 'NONE', #417, #572, #491 ) ;
#569 = VECTOR ( 'NONE', #991, 1000.000000000000000 ) ;
#570 = CARTESIAN_POINT ( 'NONE',  ( 0.000000000000000000, 14.00000000000000000, 0.000000000000000000 ) ) ;
#571 = EDGE_CURVE ( 'NONE', #897, #822, #203, .T. ) ;
#572 = DIRECTION ( 'NONE',  ( 0.000000000000000000, 0.000000000000000000, -1.000000000000000000 ) ) ;
#573 = ORIENTED_EDGE ( 'NONE', *, *, #673, .F. ) ;
#574 = ORIENTED_EDGE ( 'NONE', *, *, #768, .F. ) ;
#575 = DIRECTION ( 'NONE',  ( 0.000000000000000000, 0.000000000000000000, -1.000000000000000000 ) ) ;
#576 = CARTESIAN_POINT ( 'NONE',  ( 0.000000000000000000, 14.00000000000000000, 0.000000000000000000 ) ) ;
#577 = EDGE_LOOP ( 'NONE', ( #586, #714, #978, #766, #186, #510, #300, #40, #628, #279, #674, #983 ) ) ;
#578 = FACE_OUTER_BOUND ( 'NONE', #214, .T. ) ;
#579 = FACE_OUTER_BOUND ( 'NONE', #951, .T. ) ;
#580 = ORIENTED_EDGE ( 'NONE', *, *, #187, .T. ) ;
#581 = VECTOR ( 'NONE', #1028, 1000.000000000000000 ) ;
#582 = EDGE_LOOP ( 'NONE', ( #562, #580, #395, #1001 ) ) ;
#583 = VECTOR ( 'NONE', #651, 1000.000000000000000 ) ;
#584 = DIRECTION ( 'NONE',  ( 0.000000000000000000, -1.000000000000000000, 0.000000000000000000 ) ) ;
#585 = CARTESIAN_POINT ( 'NONE',  ( 0.000000000000000000, 14.00000000000000000, 0.000000000000000000 ) ) ;
#586 = ORIENTED_EDGE ( 'NONE', *, *, #198, .T. ) ;
#587 = VERTEX_POINT ( 'NONE', #521 ) ;
#588 = LINE ( 'NONE', #285, #892 ) ;
#589 = DIRECTION ( 'NONE',  ( -0.000000000000000000, -1.000000000000000000, -0.000000000000000000 ) ) ;
#590 = DIRECTION ( 'NONE',  ( -1.000000000000000000, 0.000000000000000000, -0.000000000000000000 ) ) ;
#591 = VERTEX_POINT ( 'NONE', #915 ) ;
#592 = ORIENTED_EDGE ( 'NONE', *, *, #604, .F. ) ;
#593 = EDGE_CURVE ( 'NONE', #753, #710, #594, .T. ) ;
#594 = LINE ( 'NONE', #841, #907 ) ;
#595 = CARTESIAN_POINT ( 'NONE',  ( 81.70000000000000284, -1.000000000000000000, 3.000000000000000000 ) ) ;
#596 = PLANE ( 'NONE',  #369 ) ;
#597 = ORIENTED_EDGE ( 'NONE', *, *, #996, .F. ) ;
#598 = DIRECTION ( 'NONE',  ( 0.000000000000000000, 0.000000000000000000, 1.000000000000000000 ) ) ;
#599 = AXIS2_PLACEMENT_3D ( 'NONE', #606, #1021, #598 ) ;
#600 = CARTESIAN_POINT ( 'NONE',  ( -3.000000000000000000, 8.500000000000000000, -36.00000000000000711 ) ) ;
#601 = DIRECTION ( 'NONE',  ( 1.000000000000000000, 0.000000000000000000, -0.000000000000000000 ) ) ;
#602 = VECTOR ( 'NONE', #843, 1000.000000000000000 ) ;
#603 = FACE_OUTER_BOUND ( 'NONE', #577, .T. ) ;
#604 = EDGE_CURVE ( 'NONE', #65, #937, #681, .T. ) ;
#605 = VERTEX_POINT ( 'NONE', #849 ) ;
#606 = CARTESIAN_POINT ( 'NONE',  ( 81.70000000000000284, 14.00000000000000000, 0.000000000000000000 ) ) ;
#607 = LINE ( 'NONE', #355, #688 ) ;
#608 = CARTESIAN_POINT ( 'NONE',  ( 0.000000000000000000, 8.500000000000000000, -94.23999999999998067 ) ) ;
#609 = PLANE ( 'NONE',  #992 ) ;
#610 = ORIENTED_EDGE ( 'NONE', *, *, #734, .F. ) ;
#611 = DIRECTION ( 'NONE',  ( 1.000000000000000000, -0.000000000000000000, -1.786073076938797487E-16 ) ) ;
#612 = DATE_TIME_ROLE ( 'classification_date' ) ;
#613 = DIRECTION ( 'NONE',  ( 0.000000000000000000, 0.05233595624293715942, 0.9986295347545742773 ) ) ;
#614 = CARTESIAN_POINT ( 'NONE',  ( 81.70000000000000284, 7.000000000000000000, 0.000000000000000000 ) ) ;
#615 = ORIENTED_EDGE ( 'NONE', *, *, #672, .F. ) ;
#616 = CARTESIAN_POINT ( 'NONE',  ( -3.000000000000000000, 0.000000000000000000, -0.000000000000000000 ) ) ;
#617 = DIRECTION ( 'NONE',  ( 1.000000000000000000, 0.000000000000000000, 0.000000000000000000 ) ) ;
#618 = VECTOR ( 'NONE', #933, 1000.000000000000000 ) ;
#619 = CARTESIAN_POINT ( 'NONE',  ( 0.000000000000000000, 7.000000000000000000, -78.23999999999998067 ) ) ;
#620 = AXIS2_PLACEMENT_3D ( 'NONE', #490, #985, #482 ) ;
#621 = VECTOR ( 'NONE', #349, 1000.000000000000000 ) ;
#622 = EDGE_LOOP ( 'NONE', ( #671, #692, #840, #525, #722, #819, #500, #139 ) ) ;
#623 = LINE ( 'NONE', #135, #820 ) ;
#624 = PERSON_AND_ORGANIZATION ( #399, #806 ) ;
#625 = EDGE_CURVE ( 'NONE', #637, #697, #745, .T. ) ;
#626 = EDGE_CURVE ( 'NONE', #815, #517, #687, .T. ) ;
#627 = CARTESIAN_POINT ( 'NONE',  ( 2.000000000000000000, 7.000000000000000000, -20.00000000000000000 ) ) ;
#628 = ORIENTED_EDGE ( 'NONE', *, *, #235, .T. ) ;
#629 = CALENDAR_DATE ( 2026, 17, 2 ) ;
#630 = FACE_OUTER_BOUND ( 'NONE', #558, .T. ) ;
#631 = EDGE_CURVE ( 'NONE', #191, #661, #280, .T. ) ;
#632 = ORIENTED_EDGE ( 'NONE', *, *, #74, .T. ) ;
#633 = MECHANICAL_CONTEXT ( 'NONE', #825, 'mechanical' ) ;
#634 = DIRECTION ( 'NONE',  ( -1.786073076938797487E-16, 0.000000000000000000, -1.000000000000000000 ) ) ;
#635 = EDGE_CURVE ( 'NONE', #795, #5, #41, .T. ) ;
#636 = VECTOR ( 'NONE', #512, 1000.000000000000000 ) ;
#637 = VERTEX_POINT ( 'NONE', #1018 ) ;
#638 = LOCAL_TIME ( 17, 7, 43.00000000000000000, #464 ) ;
#639 = CARTESIAN_POINT ( 'NONE',  ( 0.000000000000000000, 14.00000000000000000, -20.00000000000000000 ) ) ;
#640 = LINE ( 'NONE', #266, #242 ) ;
#641 = ORIENTED_EDGE ( 'NONE', *, *, #768, .T. ) ;
#642 = EDGE_CURVE ( 'NONE', #993, #380, #441, .T. ) ;
#643 = CARTESIAN_POINT ( 'NONE',  ( 79.70000000000000284, 7.000000000000000000, -112.2399999999999949 ) ) ;
#644 = LINE ( 'NONE', #804, #290 ) ;
#645 = ORIENTED_EDGE ( 'NONE', *, *, #559, .F. ) ;
#646 = CARTESIAN_POINT ( 'NONE',  ( 2.000000000000000000, 7.000000000000000000, -20.00000000000000000 ) ) ;
#647 = CARTESIAN_POINT ( 'NONE',  ( 81.70000000000000284, 14.00000000000000000, -117.2399999999999949 ) ) ;
#648 = ORIENTED_EDGE ( 'NONE', *, *, #393, .F. ) ;
#649 = LOCAL_TIME ( 17, 7, 43.00000000000000000, #699 ) ;
#650 = EDGE_CURVE ( 'NONE', #661, #192, #675, .T. ) ;
#651 = DIRECTION ( 'NONE',  ( -1.000000000000000000, 0.000000000000000000, 0.000000000000000000 ) ) ;
#652 = CARTESIAN_POINT ( 'NONE',  ( 2.000000000000001776, 7.000000000000000000, -2.000000000000000000 ) ) ;
#653 = ORIENTED_EDGE ( 'NONE', *, *, #70, .F. ) ;
#654 = LINE ( 'NONE', #265, #37 ) ;
#655 = DIRECTION ( 'NONE',  ( 1.000000000000000000, -0.000000000000000000, 0.000000000000000000 ) ) ;
#656 = EDGE_CURVE ( 'NONE', #250, #965, #607, .T. ) ;
#657 = ORIENTED_EDGE ( 'NONE', *, *, #251, .F. ) ;
#658 = EDGE_LOOP ( 'NONE', ( #221, #11, #24, #873 ) ) ;
#659 = LINE ( 'NONE', #248, #583 ) ;
#660 = LINE ( 'NONE', #608, #668 ) ;
#661 = VERTEX_POINT ( 'NONE', #600 ) ;
#662 = EDGE_CURVE ( 'NONE', #961, #32, #920, .T. ) ;
#663 = AXIS2_PLACEMENT_3D ( 'NONE', #557, #634, #166 ) ;
#664 = VECTOR ( 'NONE', #261, 1000.000000000000000 ) ;
#665 = ORIENTED_EDGE ( 'NONE', *, *, #327, .T. ) ;
#666 = VECTOR ( 'NONE', #415, 1000.000000000000000 ) ;
#667 = CARTESIAN_POINT ( 'NONE',  ( 0.000000000000000000, 14.00000000000000000, -117.2399999999999949 ) ) ;
#668 = VECTOR ( 'NONE', #916, 1000.000000000000000 ) ;
#669 = DIRECTION ( 'NONE',  ( 0.000000000000000000, 0.000000000000000000, -1.000000000000000000 ) ) ;
#670 = CARTESIAN_POINT ( 'NONE',  ( 0.000000000000000000, 7.000000000000000000, 0.000000000000000000 ) ) ;
#671 = ORIENTED_EDGE ( 'NONE', *, *, #727, .F. ) ;
#672 = EDGE_CURVE ( 'NONE', #591, #605, #361, .T. ) ;
#673 = EDGE_CURVE ( 'NONE', #901, #961, #588, .T. ) ;
#674 = ORIENTED_EDGE ( 'NONE', *, *, #723, .T. ) ;
#675 = LINE ( 'NONE', #47, #467 ) ;
#676 = DIRECTION ( 'NONE',  ( -1.000000000000000000, 0.000000000000000000, -0.000000000000000000 ) ) ;
#677 = CARTESIAN_POINT ( 'NONE',  ( 0.000000000000000000, 14.00000000000000000, 0.000000000000000000 ) ) ;
#678 = ORIENTED_EDGE ( 'NONE', *, *, #708, .T. ) ;
#679 = DIRECTION ( 'NONE',  ( 0.000000000000000000, -0.000000000000000000, -1.000000000000000000 ) ) ;
#680 = EDGE_CURVE ( 'NONE', #101, #83, #767, .T. ) ;
#681 = LINE ( 'NONE', #210, #190 ) ;
#682 =( LENGTH_UNIT ( ) NAMED_UNIT ( * ) SI_UNIT ( .MILLI., .METRE. ) );
#683 = LINE ( 'NONE', #376, #172 ) ;
#684 = VERTEX_POINT ( 'NONE', #366 ) ;
#685 = VERTEX_POINT ( 'NONE', #775 ) ;
#686 = DIRECTION ( 'NONE',  ( 0.000000000000000000, 0.000000000000000000, -1.000000000000000000 ) ) ;
#687 = LINE ( 'NONE', #436, #107 ) ;
#688 = VECTOR ( 'NONE', #934, 1000.000000000000000 ) ;
#689 = DIRECTION ( 'NONE',  ( 0.000000000000000000, 0.000000000000000000, 1.000000000000000000 ) ) ;
#690 = CARTESIAN_POINT ( 'NONE',  ( 0.000000000000000000, 14.00000000000000000, -36.00000000000000711 ) ) ;
#691 = ADVANCED_FACE ( 'NONE', ( #374 ), #854, .T. ) ;
#692 = ORIENTED_EDGE ( 'NONE', *, *, #534, .T. ) ;
#693 = CARTESIAN_POINT ( 'NONE',  ( 84.70000000000001705, 14.00000000000000000, -114.2399999999999949 ) ) ;
#694 = CARTESIAN_POINT ( 'NONE',  ( 2.000000000000001776, 7.000000000000000000, -2.000000000000000000 ) ) ;
#695 = PLANE ( 'NONE',  #317 ) ;
#696 = EDGE_CURVE ( 'NONE', #352, #418, #911, .T. ) ;
#697 = VERTEX_POINT ( 'NONE', #423 ) ;
#698 = EDGE_LOOP ( 'NONE', ( #158, #108, #925, #182 ) ) ;
#699 = COORDINATED_UNIVERSAL_TIME_OFFSET ( 1, 0, .AHEAD. ) ;
#700 = CARTESIAN_POINT ( 'NONE',  ( 81.70000000000000284, 14.00000000000000000, -114.2399999999999949 ) ) ;
#701 = CARTESIAN_POINT ( 'NONE',  ( 79.70000000000000284, 7.000000000000000000, -2.000000000000003553 ) ) ;
#702 = VECTOR ( 'NONE', #611, 1000.000000000000000 ) ;
#703 = CARTESIAN_POINT ( 'NONE',  ( 79.70000000000000284, 7.000000000000000000, -2.000000000000003553 ) ) ;
#704 = VECTOR ( 'NONE', #565, 1000.000000000000000 ) ;
#705 = AXIS2_PLACEMENT_3D ( 'NONE', #230, #550, #617 ) ;
#706 = ORIENTED_EDGE ( 'NONE', *, *, #1004, .T. ) ;
#707 = APPROVAL ( #474, 'UNSPECIFIED' ) ;
#708 = EDGE_CURVE ( 'NONE', #697, #965, #34, .T. ) ;
#709 = DIRECTION ( 'NONE',  ( 0.000000000000000000, 1.000000000000000000, -0.000000000000000000 ) ) ;
#710 = VERTEX_POINT ( 'NONE', #861 ) ;
#711 = PERSON_AND_ORGANIZATION ( #399, #806 ) ;
#712 = ADVANCED_FACE ( 'NONE', ( #148 ), #223, .T. ) ;
#713 = DIRECTION ( 'NONE',  ( -0.000000000000000000, -1.000000000000000000, -0.000000000000000000 ) ) ;
#714 = ORIENTED_EDGE ( 'NONE', *, *, #604, .T. ) ;
#715 = DATE_AND_TIME ( #297, #638 ) ;
#716 = CARTESIAN_POINT ( 'NONE',  ( 2.000000000000001776, 7.000000000000000000, -94.23999999999998067 ) ) ;
#717 = AXIS2_PLACEMENT_3D ( 'NONE', #700, #801, #86 ) ;
#718 = VECTOR ( 'NONE', #756, 1000.000000000000000 ) ;
#719 = ORIENTED_EDGE ( 'NONE', *, *, #382, .F. ) ;
#720 = CARTESIAN_POINT ( 'NONE',  ( 81.70000000000000284, 14.00000000000000000, -114.2399999999999949 ) ) ;
#721 = PLANE ( 'NONE',  #568 ) ;
#722 = ORIENTED_EDGE ( 'NONE', *, *, #102, .F. ) ;
#723 = EDGE_CURVE ( 'NONE', #439, #846, #782, .T. ) ;
#724 = CARTESIAN_POINT ( 'NONE',  ( -3.000000000000000000, -7.236387342133398626, -115.9973593128806897 ) ) ;
#725 = LINE ( 'NONE', #576, #513 ) ;
#726 = ORIENTED_EDGE ( 'NONE', *, *, #800, .T. ) ;
#727 = EDGE_CURVE ( 'NONE', #730, #44, #1022, .T. ) ;
#728 = CARTESIAN_POINT ( 'NONE',  ( 0.000000000000000000, -7.301511380992067757, -117.2399999999999949 ) ) ;
#729 = DIRECTION ( 'NONE',  ( -0.000000000000000000, -1.000000000000000000, -0.000000000000000000 ) ) ;
#730 = VERTEX_POINT ( 'NONE', #329 ) ;
#731 = AXIS2_PLACEMENT_3D ( 'NONE', #440, #373, #216 ) ;
#732 = VECTOR ( 'NONE', #336, 1000.000000000000000 ) ;
#733 = VECTOR ( 'NONE', #362, 1000.000000000000000 ) ;
#734 = EDGE_CURVE ( 'NONE', #846, #422, #742, .T. ) ;
#735 = CARTESIAN_POINT ( 'NONE',  ( -3.000000000000000000, 14.00000000000000000, -114.2399999999999949 ) ) ;
#736 = DIRECTION ( 'NONE',  ( 0.000000000000000000, 1.000000000000000000, -0.000000000000000000 ) ) ;
#737 = ORIENTED_EDGE ( 'NONE', *, *, #811, .T. ) ;
#738 = ORIENTED_EDGE ( 'NONE', *, *, #488, .T. ) ;
#739 = PLANE ( 'NONE',  #995 ) ;
#740 = DESIGN_CONTEXT ( 'detailed design', #354, 'design' ) ;
#741 = ADVANCED_FACE ( 'NONE', ( #93 ), #185, .F. ) ;
#742 = LINE ( 'NONE', #824, #862 ) ;
#743 = CARTESIAN_POINT ( 'NONE',  ( 81.70000000000000284, 14.00000000000000000, 3.000000000000000000 ) ) ;
#744 = ORIENTED_EDGE ( 'NONE', *, *, #955, .F. ) ;
#745 = LINE ( 'NONE', #141, #453 ) ;
#746 = LINE ( 'NONE', #35, #481 ) ;
#747 = DIRECTION ( 'NONE',  ( 0.000000000000000000, -0.05233595624293716636, -0.9986295347545742773 ) ) ;
#748 = ORIENTED_EDGE ( 'NONE', *, *, #784, .F. ) ;
#749 = EDGE_CURVE ( 'NONE', #191, #901, #640, .T. ) ;
#750 = ORIENTED_EDGE ( 'NONE', *, *, #327, .F. ) ;
#751 = VECTOR ( 'NONE', #930, 1000.000000000000000 ) ;
#752 = VECTOR ( 'NONE', #1009, 1000.000000000000000 ) ;
#753 = VERTEX_POINT ( 'NONE', #10 ) ;
#754 = MANIFOLD_SOLID_BREP ( 'Boss-Extrude5', #466 ) ;
#755 = VECTOR ( 'NONE', #100, 1000.000000000000000 ) ;
#756 = DIRECTION ( 'NONE',  ( -1.000000000000000000, 0.000000000000000000, 0.000000000000000000 ) ) ;
#757 = CARTESIAN_POINT ( 'NONE',  ( 2.000000000000000000, 0.000000000000000000, -112.2399999999999807 ) ) ;
#758 = DIRECTION ( 'NONE',  ( 1.000000000000000000, -0.000000000000000000, 0.000000000000000000 ) ) ;
#759 = ORIENTED_EDGE ( 'NONE', *, *, #559, .T. ) ;
#760 = CARTESIAN_POINT ( 'NONE',  ( 2.000000000000000000, 7.000000000000000000, -78.23999999999998067 ) ) ;
#761 = CARTESIAN_POINT ( 'NONE',  ( 0.000000000000000000, 0.000000000000000000, -94.23999999999998067 ) ) ;
#762 = CARTESIAN_POINT ( 'NONE',  ( 2.000000000000005329, 7.000000000000000000, -36.00000000000000711 ) ) ;
#763 = CARTESIAN_POINT ( 'NONE',  ( 81.70000000000000284, 14.00000000000000000, -114.2399999999999949 ) ) ;
#764 = ORIENTED_EDGE ( 'NONE', *, *, #333, .F. ) ;
#765 = CC_DESIGN_DATE_AND_TIME_ASSIGNMENT ( #532, #147, ( #946 ) ) ;
#766 = ORIENTED_EDGE ( 'NONE', *, *, #966, .T. ) ;
#767 = LINE ( 'NONE', #528, #21 ) ;
#768 = EDGE_CURVE ( 'NONE', #32, #605, #896, .T. ) ;
#769 = DIRECTION ( 'NONE',  ( 0.000000000000000000, -1.000000000000000000, 0.000000000000000000 ) ) ;
#770 = CARTESIAN_POINT ( 'NONE',  ( 84.70000000000001705, -7.144288043142964284, -114.2399999999999949 ) ) ;
#771 = PLANE ( 'NONE',  #412 ) ;
#772 = ORIENTED_EDGE ( 'NONE', *, *, #593, .F. ) ;
#773 = CARTESIAN_POINT ( 'NONE',  ( -3.000000000000000000, 0.000000000000000000, -94.23999999999998067 ) ) ;
#774 = VECTOR ( 'NONE', #296, 1000.000000000000000 ) ;
#775 = CARTESIAN_POINT ( 'NONE',  ( 84.70000000000001705, 14.00000000000000000, 0.000000000000000000 ) ) ;
#776 = CARTESIAN_POINT ( 'NONE',  ( -3.000000000000000000, -7.301511380992065980, -114.2399999999999949 ) ) ;
#777 = DIRECTION ( 'NONE',  ( 0.000000000000000000, 0.000000000000000000, -1.000000000000000000 ) ) ;
#778 = FACE_OUTER_BOUND ( 'NONE', #622, .T. ) ;
#779 = EDGE_LOOP ( 'NONE', ( #17, #826, #610, #206 ) ) ;
#780 = VERTEX_POINT ( 'NONE', #410 ) ;
#781 = APPLICATION_PROTOCOL_DEFINITION ( 'international standard', 'config_control_design', 1994, #354 ) ;
#782 = LINE ( 'NONE', #694, #271 ) ;
#783 = CARTESIAN_POINT ( 'NONE',  ( 84.69999999999998863, -7.236387342133398626, -115.9973593128806897 ) ) ;
#784 = EDGE_CURVE ( 'NONE', #295, #1002, #982, .T. ) ;
#785 = CARTESIAN_POINT ( 'NONE',  ( -3.000000000000000000, -1.157223337849104361, -1.387778780781445676E-14 ) ) ;
#786 = APPROVAL_STATUS ( 'not_yet_approved' ) ;
#787 = PLANE ( 'NONE',  #663 ) ;
#788 = ADVANCED_FACE ( 'NONE', ( #579 ), #721, .T. ) ;
#789 = ORIENTED_EDGE ( 'NONE', *, *, #593, .T. ) ;
#790 = EDGE_CURVE ( 'NONE', #259, #346, #644, .T. ) ;
#791 = CIRCLE ( 'NONE', #599, 3.000000000000000000 ) ;
#792 = CARTESIAN_POINT ( 'NONE',  ( 81.70000000000000284, 14.00000000000000000, -117.2399999999999949 ) ) ;
#793 = AXIS2_PLACEMENT_3D ( 'NONE', #68, #533, #457 ) ;
#794 = CC_DESIGN_APPROVAL ( #816, ( #61 ) ) ;
#795 = VERTEX_POINT ( 'NONE', #420 ) ;
#796 = APPROVAL_DATE_TIME ( #799, #707 ) ;
#797 = PLANE ( 'NONE',  #144 ) ;
#798 = EDGE_LOOP ( 'NONE', ( #126, #545, #648, #918 ) ) ;
#799 = DATE_AND_TIME ( #396, #416 ) ;
#800 = EDGE_CURVE ( 'NONE', #780, #192, #810, .T. ) ;
#801 = DIRECTION ( 'NONE',  ( 0.000000000000000000, 1.000000000000000000, -0.000000000000000000 ) ) ;
#802 = FACE_OUTER_BOUND ( 'NONE', #484, .T. ) ;
#803 = VECTOR ( 'NONE', #967, 1000.000000000000000 ) ;
#804 = CARTESIAN_POINT ( 'NONE',  ( 0.000000000000000000, -1.000000000000000000, 3.000000000000000000 ) ) ;
#805 = VECTOR ( 'NONE', #560, 1000.000000000000000 ) ;
#806 = ORGANIZATION ( 'UNSPECIFIED', 'UNSPECIFIED', '' ) ;
#807 = ORIENTED_EDGE ( 'NONE', *, *, #398, .F. ) ;
#808 = AXIS2_PLACEMENT_3D ( 'NONE', #585, #922, #912 ) ;
#809 = CARTESIAN_POINT ( 'NONE',  ( 79.70000000000000284, 7.000000000000000000, -2.000000000000003553 ) ) ;
#810 = LINE ( 'NONE', #900, #127 ) ;
#811 = EDGE_CURVE ( 'NONE', #250, #637, #486, .T. ) ;
#812 = EDGE_LOOP ( 'NONE', ( #864, #164, #919, #945 ) ) ;
#813 = CARTESIAN_POINT ( 'NONE',  ( 81.70000000000000284, 14.00000000000000000, 0.000000000000000000 ) ) ;
#814 = DIRECTION ( 'NONE',  ( 0.000000000000000000, -1.000000000000000000, 0.000000000000000000 ) ) ;
#815 = VERTEX_POINT ( 'NONE', #253 ) ;
#816 = APPROVAL ( #786, 'UNSPECIFIED' ) ;
#817 = DIRECTION ( 'NONE',  ( 9.637352644315594010E-17, 0.000000000000000000, 1.000000000000000000 ) ) ;
#818 = CARTESIAN_POINT ( 'NONE',  ( 2.000000000000001776, 0.000000000000000000, -2.000000000000000000 ) ) ;
#819 = ORIENTED_EDGE ( 'NONE', *, *, #887, .T. ) ;
#820 = VECTOR ( 'NONE', #435, 1000.000000000000000 ) ;
#821 = VECTOR ( 'NONE', #814, 1000.000000000000000 ) ;
#822 = VERTEX_POINT ( 'NONE', #818 ) ;
#823 = FACE_BOUND ( 'NONE', #492, .T. ) ;
#824 = CARTESIAN_POINT ( 'NONE',  ( 2.000000000000000000, 7.000000000000000000, -20.00000000000000000 ) ) ;
#825 = APPLICATION_CONTEXT ( 'configuration controlled 3d designs of mechanical parts and assemblies' ) ;
#826 = ORIENTED_EDGE ( 'NONE', *, *, #237, .F. ) ;
#827 = ORIENTED_EDGE ( 'NONE', *, *, #237, .T. ) ;
#828 = EDGE_CURVE ( 'NONE', #326, #1013, #904, .T. ) ;
#829 = DIRECTION ( 'NONE',  ( -0.000000000000000000, -1.000000000000000000, -0.000000000000000000 ) ) ;
#830 = DIRECTION ( 'NONE',  ( -0.000000000000000000, 1.000000000000000000, -0.000000000000000000 ) ) ;
#831 = FACE_OUTER_BOUND ( 'NONE', #128, .T. ) ;
#832 = VERTEX_POINT ( 'NONE', #891 ) ;
#833 = ORIENTED_EDGE ( 'NONE', *, *, #273, .T. ) ;
#834 = CARTESIAN_POINT ( 'NONE',  ( 2.000000000000000000, 7.000000000000000000, -78.23999999999998067 ) ) ;
#835 =( NAMED_UNIT ( * ) PLANE_ANGLE_UNIT ( ) SI_UNIT ( $, .RADIAN. ) );
#836 = LINE ( 'NONE', #49, #602 ) ;
#837 = DIRECTION ( 'NONE',  ( 0.000000000000000000, 1.000000000000000000, -0.000000000000000000 ) ) ;
#838 = ADVANCED_FACE ( 'NONE', ( #340, #106 ), #175, .T. ) ;
#839 = AXIS2_PLACEMENT_3D ( 'NONE', #231, #709, #310 ) ;
#840 = ORIENTED_EDGE ( 'NONE', *, *, #625, .F. ) ;
#841 = CARTESIAN_POINT ( 'NONE',  ( -3.000000000000000000, 14.00000000000000000, -78.23999999999998067 ) ) ;
#842 = CARTESIAN_POINT ( 'NONE',  ( 2.000000000000000000, 7.000000000000000000, -112.2399999999999807 ) ) ;
#843 = DIRECTION ( 'NONE',  ( -0.000000000000000000, -1.000000000000000000, -0.000000000000000000 ) ) ;
#844 = LINE ( 'NONE', #132, #1015 ) ;
#845 = ORIENTED_EDGE ( 'NONE', *, *, #673, .T. ) ;
#846 = VERTEX_POINT ( 'NONE', #652 ) ;
#847 = EDGE_CURVE ( 'NONE', #499, #984, #725, .T. ) ;
#848 = ORIENTED_EDGE ( 'NONE', *, *, #708, .F. ) ;
#849 = CARTESIAN_POINT ( 'NONE',  ( 0.000000000000000000, 7.000000000000000000, -78.23999999999998067 ) ) ;
#850 = LINE ( 'NONE', #757, #733 ) ;
#851 = DIRECTION ( 'NONE',  ( 1.000000000000000000, -0.000000000000000000, -1.786073076938797487E-16 ) ) ;
#852 = ORIENTED_EDGE ( 'NONE', *, *, #1026, .F. ) ;
#853 = DIRECTION ( 'NONE',  ( 0.000000000000000000, 1.000000000000000000, -0.000000000000000000 ) ) ;
#854 = PLANE ( 'NONE',  #877 ) ;
#855 = DIRECTION ( 'NONE',  ( -0.000000000000000000, -1.000000000000000000, -0.000000000000000000 ) ) ;
#856 = CARTESIAN_POINT ( 'NONE',  ( 2.000000000000000000, 7.000000000000000000, -112.2399999999999807 ) ) ;
#857 = ORIENTED_EDGE ( 'NONE', *, *, #179, .F. ) ;
#858 = CARTESIAN_POINT ( 'NONE',  ( 0.000000000000000000, 14.00000000000000000, 0.000000000000000000 ) ) ;
#859 = APPROVAL_STATUS ( 'not_yet_approved' ) ;
#860 = EDGE_CURVE ( 'NONE', #710, #246, #968, .T. ) ;
#861 = CARTESIAN_POINT ( 'NONE',  ( -3.000000000000000000, 0.000000000000000000, -78.23999999999998067 ) ) ;
#862 = VECTOR ( 'NONE', #27, 1000.000000000000000 ) ;
#863 = CARTESIAN_POINT ( 'NONE',  ( 2.000000000000000000, 0.000000000000000000, -78.23999999999998067 ) ) ;
#864 = ORIENTED_EDGE ( 'NONE', *, *, #322, .F. ) ;
#865 = CARTESIAN_POINT ( 'NONE',  ( 16.91892431568863486, 8.500000000000000000, -94.23999999999998067 ) ) ;
#866 = EDGE_CURVE ( 'NONE', #429, #1024, #14, .T. ) ;
#867 = CARTESIAN_POINT ( 'NONE',  ( 0.000000000000000000, 14.00000000000000000, -114.2399999999999949 ) ) ;
#868 = EDGE_CURVE ( 'NONE', #83, #1002, #498, .T. ) ;
#869 = ORIENTED_EDGE ( 'NONE', *, *, #102, .T. ) ;
#870 = DIRECTION ( 'NONE',  ( 1.000000000000000000, -0.000000000000000000, 0.000000000000000000 ) ) ;
#871 = PERSON_AND_ORGANIZATION ( #399, #806 ) ;
#872 = CARTESIAN_POINT ( 'NONE',  ( 0.000000000000000000, -1.000000000000000000, 3.000000000000000000 ) ) ;
#873 = ORIENTED_EDGE ( 'NONE', *, *, #631, .F. ) ;
#874 = APPROVAL_DATE_TIME ( #78, #125 ) ;
#875 = VECTOR ( 'NONE', #747, 1000.000000000000000 ) ;
#876 = LINE ( 'NONE', #260, #666 ) ;
#877 = AXIS2_PLACEMENT_3D ( 'NONE', #62, #584, #997 ) ;
#878 = VECTOR ( 'NONE', #769, 1000.000000000000000 ) ;
#879 = ORIENTED_EDGE ( 'NONE', *, *, #187, .F. ) ;
#880 = ADVANCED_FACE ( 'NONE', ( #249 ), #561, .F. ) ;
#881 = DIRECTION ( 'NONE',  ( 0.000000000000000000, -0.000000000000000000, -1.000000000000000000 ) ) ;
#882 = ORIENTED_EDGE ( 'NONE', *, *, #860, .F. ) ;
#883 = ADVANCED_FACE ( 'NONE', ( #286 ), #1005, .T. ) ;
#884 = CARTESIAN_POINT ( 'NONE',  ( -1.757359312880715230, -7.301511380992065092, -117.2399999999999949 ) ) ;
#885 = CARTESIAN_POINT ( 'NONE',  ( 0.000000000000000000, 14.00000000000000000, -117.2399999999999949 ) ) ;
#886 = ORIENTED_EDGE ( 'NONE', *, *, #890, .F. ) ;
#887 = EDGE_CURVE ( 'NONE', #180, #346, #540, .T. ) ;
#888 = FACE_OUTER_BOUND ( 'NONE', #812, .T. ) ;
#889 = VECTOR ( 'NONE', #531, 1000.000000000000000 ) ;
#890 = EDGE_CURVE ( 'NONE', #961, #684, #294, .T. ) ;
#891 = CARTESIAN_POINT ( 'NONE',  ( 0.000000000000000000, 7.000000000000000000, -94.23999999999998067 ) ) ;
#892 = VECTOR ( 'NONE', #275, 1000.000000000000000 ) ;
#893 = LOCAL_TIME ( 17, 7, 43.00000000000000000, #153 ) ;
#894 = ORIENTED_EDGE ( 'NONE', *, *, #790, .T. ) ;
#895 = CYLINDRICAL_SURFACE ( 'NONE', #553, 3.000000000000002665 ) ;
#896 = LINE ( 'NONE', #325, #732 ) ;
#897 = VERTEX_POINT ( 'NONE', #529 ) ;
#898 = VERTEX_POINT ( 'NONE', #770 ) ;
#899 = DIRECTION ( 'NONE',  ( -1.000000000000000000, 0.000000000000000000, 9.637352644315594010E-17 ) ) ;
#900 = CARTESIAN_POINT ( 'NONE',  ( -3.000000000000000000, 0.000000000000000000, -0.000000000000000000 ) ) ;
#901 = VERTEX_POINT ( 'NONE', #929 ) ;
#902 = EDGE_CURVE ( 'NONE', #661, #380, #281, .T. ) ;
#903 = CARTESIAN_POINT ( 'NONE',  ( 81.70000000000000284, 14.00000000000000000, 3.000000000000000000 ) ) ;
#904 = LINE ( 'NONE', #406, #704 ) ;
#905 = ORIENTED_EDGE ( 'NONE', *, *, #247, .T. ) ;
#906 = AXIS2_PLACEMENT_3D ( 'NONE', #690, #64, #443 ) ;
#907 = VECTOR ( 'NONE', #129, 1000.000000000000000 ) ;
#908 = EDGE_CURVE ( 'NONE', #591, #587, #660, .T. ) ;
#909 = ADVANCED_FACE ( 'NONE', ( #131 ), #990, .T. ) ;
#910 = ORIENTED_EDGE ( 'NONE', *, *, #656, .T. ) ;
#911 = LINE ( 'NONE', #501, #1031 ) ;
#912 = DIRECTION ( 'NONE',  ( 0.000000000000000000, 0.000000000000000000, 1.000000000000000000 ) ) ;
#913 = ORIENTED_EDGE ( 'NONE', *, *, #534, .F. ) ;
#914 = EDGE_LOOP ( 'NONE', ( #176, #807, #554, #8, #196, #370, #566, #524, #359, #852, #857, #57 ) ) ;
#915 = CARTESIAN_POINT ( 'NONE',  ( 0.000000000000000000, 8.500000000000000000, -78.23999999999998067 ) ) ;
#916 = DIRECTION ( 'NONE',  ( 0.000000000000000000, 0.000000000000000000, -1.000000000000000000 ) ) ;
#917 = CARTESIAN_POINT ( 'NONE',  ( 2.000000000000001776, 7.000000000000000000, -2.000000000000000000 ) ) ;
#918 = ORIENTED_EDGE ( 'NONE', *, *, #509, .F. ) ;
#919 = ORIENTED_EDGE ( 'NONE', *, *, #377, .F. ) ;
#920 = LINE ( 'NONE', #928, #173 ) ;
#921 = ADVANCED_FACE ( 'NONE', ( #507 ), #204, .T. ) ;
#922 = DIRECTION ( 'NONE',  ( 0.000000000000000000, 1.000000000000000000, 0.000000000000000000 ) ) ;
#923 = DIRECTION ( 'NONE',  ( -1.000000000000000000, 0.000000000000000000, 9.637352644315594010E-17 ) ) ;
#924 = EDGE_CURVE ( 'NONE', #44, #352, #142, .T. ) ;
#925 = ORIENTED_EDGE ( 'NONE', *, *, #828, .F. ) ;
#926 = AXIS2_PLACEMENT_3D ( 'NONE', #328, #899, #817 ) ;
#927 = LINE ( 'NONE', #1016, #331 ) ;
#928 = CARTESIAN_POINT ( 'NONE',  ( 2.000000000000000000, 7.000000000000000000, -78.23999999999998067 ) ) ;
#929 = CARTESIAN_POINT ( 'NONE',  ( 0.000000000000000000, 7.000000000000000000, -36.00000000000000711 ) ) ;
#930 = DIRECTION ( 'NONE',  ( -0.000000000000000000, -0.000000000000000000, 1.000000000000000000 ) ) ;
#931 = EDGE_LOOP ( 'NONE', ( #220, #665, #171, #988, #503, #744 ) ) ;
#932 = ORIENTED_EDGE ( 'NONE', *, *, #70, .T. ) ;
#933 = DIRECTION ( 'NONE',  ( -0.000000000000000000, -1.000000000000000000, -0.000000000000000000 ) ) ;
#934 = DIRECTION ( 'NONE',  ( -1.000000000000000000, 0.000000000000000000, 0.000000000000000000 ) ) ;
#935 = DIRECTION ( 'NONE',  ( -1.232047923278983185E-16, -0.000000000000000000, -1.000000000000000000 ) ) ;
#936 = LINE ( 'NONE', #218, #469 ) ;
#937 = VERTEX_POINT ( 'NONE', #514 ) ;
#938 = ORIENTED_EDGE ( 'NONE', *, *, #662, .T. ) ;
#939 = EDGE_CURVE ( 'NONE', #1013, #330, #836, .T. ) ;
#940 = FACE_OUTER_BOUND ( 'NONE', #305, .T. ) ;
#941 = APPROVAL_ROLE ( '' ) ;
#942 = DIRECTION ( 'NONE',  ( -1.000000000000000000, -0.000000000000000000, 4.465182692346993718E-17 ) ) ;
#943 = CARTESIAN_POINT ( 'NONE',  ( 205.1614862453836565, -7.301511380992067757, -117.2399999999999949 ) ) ;
#944 = ORIENTED_EDGE ( 'NONE', *, *, #92, .F. ) ;
#945 = ORIENTED_EDGE ( 'NONE', *, *, #811, .F. ) ;
#946 = PRODUCT_DEFINITION ( 'UNKNOWN', '', #256, #740 ) ;
#947 = CARTESIAN_POINT ( 'NONE',  ( 0.000000000000000000, 7.000000000000000000, -20.00000000000000000 ) ) ;
#948 = VECTOR ( 'NONE', #829, 1000.000000000000000 ) ;
#949 = PERSON_AND_ORGANIZATION ( #399, #806 ) ;
#950 = LINE ( 'NONE', #82, #581 ) ;
#951 = EDGE_LOOP ( 'NONE', ( #879, #258, #574, #759, #882, #772 ) ) ;
#952 = ORIENTED_EDGE ( 'NONE', *, *, #74, .F. ) ;
#953 = DIRECTION ( 'NONE',  ( 0.000000000000000000, 0.000000000000000000, -1.000000000000000000 ) ) ;
#954 = PERSON_AND_ORGANIZATION_ROLE ( 'design_owner' ) ;
#955 = EDGE_CURVE ( 'NONE', #587, #832, #746, .T. ) ;
#956 = LINE ( 'NONE', #960, #7 ) ;
#957 = ORIENTED_EDGE ( 'NONE', *, *, #322, .T. ) ;
#958 = CALENDAR_DATE ( 2026, 17, 2 ) ;
#959 = PRODUCT_DEFINITION_SHAPE ( 'NONE', 'NONE',  #946 ) ;
#960 = CARTESIAN_POINT ( 'NONE',  ( 2.000000000000000000, 0.000000000000000000, -20.00000000000000000 ) ) ;
#961 = VERTEX_POINT ( 'NONE', #762 ) ;
#962 = PERSON_AND_ORGANIZATION_ROLE ( 'creator' ) ;
#963 = AXIS2_PLACEMENT_3D ( 'NONE', #856, #923, #363 ) ;
#964 = CARTESIAN_POINT ( 'NONE',  ( 84.70000000000001705, 14.00000000000000000, -114.2399999999999949 ) ) ;
#965 = VERTEX_POINT ( 'NONE', #1011 ) ;
#966 = EDGE_CURVE ( 'NONE', #103, #83, #432, .T. ) ;
#967 = DIRECTION ( 'NONE',  ( 0.000000000000000000, -1.000000000000000000, 0.000000000000000000 ) ) ;
#968 = LINE ( 'NONE', #189, #77 ) ;
#969 = ORIENTED_EDGE ( 'NONE', *, *, #680, .F. ) ;
#970 = EDGE_CURVE ( 'NONE', #795, #330, #850, .T. ) ;
#971 = EDGE_CURVE ( 'NONE', #685, #316, #137, .T. ) ;
#972 = CARTESIAN_POINT ( 'NONE',  ( 0.000000000000000000, 14.00000000000000000, 0.000000000000000000 ) ) ;
#973 = DIRECTION ( 'NONE',  ( 0.000000000000000000, 0.000000000000000000, -1.000000000000000000 ) ) ;
#974 = ORIENTED_EDGE ( 'NONE', *, *, #924, .T. ) ;
#975 = DIRECTION ( 'NONE',  ( 0.000000000000000000, 0.000000000000000000, 1.000000000000000000 ) ) ;
#976 = CARTESIAN_POINT ( 'NONE',  ( 79.70000000000000284, 7.000000000000000000, -112.2399999999999949 ) ) ;
#977 = VECTOR ( 'NONE', #669, 1000.000000000000000 ) ;
#978 = ORIENTED_EDGE ( 'NONE', *, *, #251, .T. ) ;
#979 =( BOUNDED_CURVE ( )  B_SPLINE_CURVE ( 3, ( #872, #236, #157, #311 ),
 .UNSPECIFIED., .F., .F. ) 
 B_SPLINE_CURVE_WITH_KNOTS ( ( 4, 4 ),
 ( 0.000000000000000000, 1.570796326794901221 ),
 .UNSPECIFIED. ) 
 CURVE ( )  GEOMETRIC_REPRESENTATION_ITEM ( )  RATIONAL_B_SPLINE_CURVE ( ( 1.000000000000000000, 0.8047378541243639383, 0.8047378541243639383, 1.000000000000000000 ) ) 
 REPRESENTATION_ITEM ( '' )  );
#980 = ORIENTED_EDGE ( 'NONE', *, *, #626, .F. ) ;
#981 = PLANE ( 'NONE',  #620 ) ;
#982 = LINE ( 'NONE', #20, #664 ) ;
#983 = ORIENTED_EDGE ( 'NONE', *, *, #734, .T. ) ;
#984 = VERTEX_POINT ( 'NONE', #998 ) ;
#985 = DIRECTION ( 'NONE',  ( 0.000000000000000000, -0.000000000000000000, 1.000000000000000000 ) ) ;
#986 = CARTESIAN_POINT ( 'NONE',  ( 84.70000000000001705, 14.00000000000000000, 0.000000000000000000 ) ) ;
#987 = ORIENTED_EDGE ( 'NONE', *, *, #526, .F. ) ;
#988 = ORIENTED_EDGE ( 'NONE', *, *, #85, .F. ) ;
#989 = DIRECTION ( 'NONE',  ( 0.000000000000000000, 0.000000000000000000, 1.000000000000000000 ) ) ;
#990 = CYLINDRICAL_SURFACE ( 'NONE', #808, 3.000000000000000000 ) ;
#991 = DIRECTION ( 'NONE',  ( -0.000000000000000000, 1.000000000000000000, -0.000000000000000000 ) ) ;
#992 = AXIS2_PLACEMENT_3D ( 'NONE', #143, #516, #426 ) ;
#993 = VERTEX_POINT ( 'NONE', #55 ) ;
#994 = VECTOR ( 'NONE', #389, 1000.000000000000000 ) ;
#995 = AXIS2_PLACEMENT_3D ( 'NONE', #30, #90, #403 ) ;
#996 = EDGE_CURVE ( 'NONE', #984, #103, #1019, .T. ) ;
#997 = DIRECTION ( 'NONE',  ( 0.000000000000000000, -0.000000000000000000, -1.000000000000000000 ) ) ;
#998 = CARTESIAN_POINT ( 'NONE',  ( 81.70000000000000284, 14.00000000000000000, 0.000000000000000000 ) ) ;
#999 = PLANE ( 'NONE',  #906 ) ;
#1000 = ORIENTED_EDGE ( 'NONE', *, *, #488, .F. ) ;
#1001 = ORIENTED_EDGE ( 'NONE', *, *, #495, .F. ) ;
#1002 = VERTEX_POINT ( 'NONE', #277 ) ;
#1003 = CARTESIAN_POINT ( 'NONE',  ( 2.000000000000001776, 0.000000000000000000, -2.000000000000000000 ) ) ;
#1004 = EDGE_CURVE ( 'NONE', #439, #897, #936, .T. ) ;
#1005 = PLANE ( 'NONE',  #371 ) ;
#1006 = DIRECTION ( 'NONE',  ( 0.000000000000000000, 0.000000000000000000, -1.000000000000000000 ) ) ;
#1007 = CARTESIAN_POINT ( 'NONE',  ( 2.000000000000001776, 7.000000000000000000, -94.23999999999998067 ) ) ;
#1008 = CC_DESIGN_DATE_AND_TIME_ASSIGNMENT ( #715, #612, ( #61 ) ) ;
#1009 = DIRECTION ( 'NONE',  ( -0.000000000000000000, -1.000000000000000000, -0.000000000000000000 ) ) ;
#1010 = EDGE_CURVE ( 'NONE', #346, #517, #356, .T. ) ;
#1011 = CARTESIAN_POINT ( 'NONE',  ( 0.000000000000000000, 14.00000000000000000, -117.2399999999999949 ) ) ;
#1012 = LINE ( 'NONE', #508, #751 ) ;
#1013 = VERTEX_POINT ( 'NONE', #842 ) ;
#1014 = EDGE_LOOP ( 'NONE', ( #379, #15, #202, #364 ) ) ;
#1015 = VECTOR ( 'NONE', #758, 1000.000000000000000 ) ;
#1016 = CARTESIAN_POINT ( 'NONE',  ( 0.000000000000000000, 14.00000000000000000, 0.000000000000000000 ) ) ;
#1017 = VECTOR ( 'NONE', #375, 1000.000000000000000 ) ;
#1018 = CARTESIAN_POINT ( 'NONE',  ( 81.70000000000000284, -7.301511380992067757, -117.2399999999999949 ) ) ;
#1019 = LINE ( 'NONE', #42, #229 ) ;
#1020 = FACE_OUTER_BOUND ( 'NONE', #698, .T. ) ;
#1021 = DIRECTION ( 'NONE',  ( 0.000000000000000000, 1.000000000000000000, -0.000000000000000000 ) ) ;
#1022 = LINE ( 'NONE', #298, #227 ) ;
#1023 = CARTESIAN_POINT ( 'NONE',  ( 84.70000000000001705, -1.157223337849101696, 0.000000000000000000 ) ) ;
#1024 = VERTEX_POINT ( 'NONE', #130 ) ;
#1025 = ORIENTED_EDGE ( 'NONE', *, *, #543, .T. ) ;
#1026 = EDGE_CURVE ( 'NONE', #684, #246, #535, .T. ) ;
#1027 = EDGE_LOOP ( 'NONE', ( #657, #1000, #109, #353 ) ) ;
#1028 = DIRECTION ( 'NONE',  ( 0.000000000000000000, 0.000000000000000000, -1.000000000000000000 ) ) ;
#1029 = EDGE_CURVE ( 'NONE', #418, #730, #506, .T. ) ;
#1030 = DIRECTION ( 'NONE',  ( 0.000000000000000000, 0.000000000000000000, 1.000000000000000000 ) ) ;
#1031 = VECTOR ( 'NONE', #115, 1000.000000000000000 ) ;
#1032 = AXIS2_PLACEMENT_3D ( 'NONE', #425, #194, #502 ) ;
#1033 = CARTESIAN_POINT ( 'NONE',  ( -3.000000000000000000, 8.500000000000000000, -94.23999999999998067 ) ) ;
#1034 = ORIENTED_EDGE ( 'NONE', *, *, #971, .F. ) ;
#1035 = EDGE_CURVE ( 'NONE', #846, #822, #276, .T. ) ;
ENDSEC;
END-ISO-10303-21;
